<svg width="732" height="636" viewBox="0 0 732 636" fill="none" xmlns="http://www.w3.org/2000/svg" xmlns:xlink="http://www.w3.org/1999/xlink">
<path d="M450.377 21.6466C323.993 -55.4746 203.015 92.5191 167.795 167.746C57.52 476.178 339.038 664.657 474.453 632.431C661.484 587.921 574.648 459.774 507.851 401.264C457.329 337.948 472.226 186.814 485.991 119.162C506.394 75.2796 471.194 34.3498 450.377 21.6466Z" fill="white" fill-opacity="0.1"/>
<path d="M581.712 346.053C581.749 347.39 581.773 348.73 581.786 350.073L580.786 350.082C580.792 350.75 580.795 351.419 580.795 352.088C580.795 352.758 580.792 353.427 580.786 354.095L581.786 354.104C581.773 355.447 581.749 356.787 581.712 358.124L580.712 358.097C580.675 359.428 580.626 360.757 580.565 362.083L581.564 362.129C581.503 363.465 581.429 364.798 581.343 366.128L580.345 366.064C580.259 367.397 580.161 368.728 580.05 370.056L581.047 370.139C580.936 371.473 580.813 372.804 580.678 374.132L579.683 374.03C579.548 375.353 579.401 376.674 579.242 377.991L580.235 378.11C580.075 379.443 579.902 380.772 579.717 382.098L578.727 381.96C578.543 383.279 578.346 384.596 578.138 385.909L579.126 386.066C578.917 387.385 578.696 388.702 578.463 390.014L577.479 389.84C577.246 391.154 577 392.465 576.743 393.772L577.725 393.965C577.466 395.278 577.196 396.589 576.914 397.895L575.937 397.684C575.656 398.985 575.364 400.282 575.059 401.575L576.033 401.804C575.726 403.108 575.408 404.408 575.078 405.704L574.109 405.457C573.78 406.748 573.439 408.035 573.087 409.319L574.051 409.584C573.698 410.873 573.332 412.159 572.955 413.44L571.996 413.158C571.62 414.436 571.233 415.71 570.834 416.98L571.788 417.28C571.387 418.556 570.975 419.829 570.551 421.097L569.603 420.78C569.181 422.043 568.748 423.302 568.303 424.556L569.246 424.89C568.799 426.151 568.341 427.407 567.872 428.659L566.936 428.309C566.468 429.556 565.99 430.798 565.501 432.037L566.431 432.404C565.939 433.648 565.436 434.887 564.923 436.122L563.999 435.738C563.488 436.967 562.966 438.192 562.433 439.412L563.349 439.813C562.814 441.038 562.268 442.258 561.711 443.474L560.802 443.058C560.247 444.268 559.682 445.475 559.106 446.676L560.008 447.108C559.43 448.314 558.841 449.515 558.242 450.711L557.348 450.263C556.752 451.453 556.145 452.638 555.528 453.818L556.414 454.281C555.795 455.466 555.165 456.646 554.525 457.821L553.646 457.343C553.009 458.512 552.362 459.676 551.704 460.836L552.574 461.329C551.915 462.491 551.246 463.648 550.567 464.799L549.705 464.291C549.029 465.438 548.342 466.58 547.646 467.716L548.498 468.239C547.799 469.379 547.091 470.515 546.372 471.645L545.528 471.108C544.814 472.23 544.091 473.347 543.358 474.458L544.193 475.008C543.457 476.124 542.711 477.235 541.956 478.34L541.13 477.776C540.378 478.876 539.616 479.971 538.845 481.061L539.661 481.639C538.891 482.728 538.11 483.811 537.321 484.889L536.514 484.298C535.727 485.372 534.932 486.44 534.127 487.503L534.924 488.107C534.116 489.173 533.298 490.235 532.472 491.29L531.685 490.674C530.865 491.72 530.036 492.761 529.199 493.796L529.977 494.425C529.136 495.464 528.287 496.496 527.429 497.523L526.662 496.882C525.807 497.905 524.944 498.922 524.072 499.933L524.829 500.586C523.957 501.598 523.077 502.603 522.188 503.602L521.441 502.937C520.556 503.931 519.664 504.919 518.763 505.9L519.499 506.577C518.595 507.562 517.682 508.542 516.761 509.515L516.034 508.828C515.119 509.794 514.196 510.755 513.265 511.71L513.98 512.408C513.049 513.363 512.108 514.312 511.16 515.255L510.455 514.546C509.511 515.485 508.558 516.419 507.597 517.346L508.292 518.065C507.329 518.994 506.359 519.916 505.381 520.832L504.697 520.103C503.728 521.011 502.75 521.913 501.765 522.809L502.438 523.549C501.449 524.448 500.452 525.341 499.448 526.227L498.786 525.478C497.786 526.361 496.779 527.237 495.764 528.107L496.414 528.867C495.403 529.734 494.383 530.595 493.357 531.449L492.717 530.681C491.694 531.532 490.664 532.378 489.626 533.216L490.255 533.994C489.214 534.835 488.165 535.671 487.11 536.499L486.492 535.712C485.447 536.533 484.395 537.347 483.335 538.155L483.941 538.95C482.88 539.759 481.811 540.562 480.736 541.358L480.141 540.554C479.069 541.348 477.991 542.134 476.905 542.914L477.489 543.726C476.404 544.506 475.313 545.278 474.215 546.045L473.643 545.224C472.553 545.985 471.456 546.739 470.353 547.486L470.914 548.314C469.807 549.064 468.693 549.807 467.573 550.543L467.024 549.708C465.91 550.44 464.789 551.166 463.662 551.885L464.2 552.728C463.076 553.445 461.947 554.155 460.81 554.858L460.284 554.007C459.152 554.708 458.014 555.402 456.869 556.089L457.384 556.946C456.236 557.636 455.081 558.318 453.921 558.993L453.418 558.129C452.27 558.797 451.116 559.459 449.956 560.113L450.448 560.984C449.285 561.64 448.117 562.289 446.943 562.931L446.463 562.054C445.293 562.694 444.117 563.327 442.935 563.952L443.404 564.836C442.223 565.461 441.038 566.079 439.846 566.69L439.39 565.801C438.207 566.407 437.019 567.007 435.825 567.599L436.27 568.495C435.072 569.089 433.869 569.677 432.661 570.257L432.228 569.355C431.026 569.933 429.818 570.503 428.604 571.066L429.025 571.973C427.817 572.534 426.603 573.088 425.385 573.634L424.975 572.722C423.761 573.267 422.541 573.804 421.316 574.335L421.714 575.252C420.485 575.784 419.251 576.309 418.013 576.827L417.627 575.904C416.4 576.417 415.169 576.922 413.932 577.42L414.306 578.348C413.069 578.846 411.827 579.337 410.58 579.821L410.218 578.889C408.975 579.371 407.727 579.846 406.475 580.314L406.825 581.251C405.572 581.719 404.314 582.18 403.052 582.633L402.714 581.692C401.464 582.141 400.21 582.582 398.951 583.016L399.277 583.962C398.014 584.397 396.747 584.826 395.475 585.246L395.161 584.297C393.894 584.717 392.622 585.129 391.346 585.533L391.648 586.486C390.377 586.889 389.102 587.285 387.824 587.673L387.533 586.716C386.261 587.102 384.984 587.48 383.703 587.852L383.981 588.812C382.697 589.184 381.408 589.549 380.115 589.907L379.849 588.943C378.563 589.298 377.274 589.646 375.982 589.986L376.236 590.953C374.948 591.292 373.656 591.623 372.36 591.947L372.117 590.977C370.825 591.3 369.53 591.616 368.23 591.923L368.461 592.897C367.158 593.205 365.851 593.507 364.54 593.8L364.321 592.824C363.025 593.115 361.724 593.398 360.42 593.673L360.627 594.652C359.322 594.927 358.014 595.196 356.702 595.456L356.507 594.475C355.199 594.735 353.888 594.987 352.574 595.231L352.757 596.214C351.44 596.459 350.121 596.696 348.799 596.926L348.628 595.94C347.32 596.167 346.009 596.386 344.695 596.598L344.854 597.585C343.536 597.798 342.214 598.002 340.89 598.199L340.743 597.21C339.423 597.406 338.099 597.595 336.773 597.776L336.908 598.767C335.585 598.947 334.26 599.12 332.932 599.285L332.808 598.293C331.49 598.457 330.168 598.613 328.844 598.762L328.956 599.755C327.628 599.904 326.297 600.046 324.963 600.179L324.863 599.184C323.534 599.317 322.201 599.443 320.866 599.561L320.954 600.557C319.628 600.674 318.299 600.783 316.968 600.884L316.892 599.887C315.566 599.988 314.238 600.082 312.907 600.168L312.971 601.165C311.636 601.251 310.299 601.33 308.959 601.4L308.906 600.402C307.574 600.472 306.239 600.534 304.901 600.589L304.942 601.588C303.612 601.642 302.28 601.689 300.946 601.728L300.917 600.728C299.587 600.767 298.254 600.798 296.919 600.821L296.937 601.821C295.598 601.844 294.257 601.86 292.914 601.868L292.908 600.868C292.238 600.872 291.568 600.874 290.897 600.874C290.227 600.874 289.556 600.872 288.887 600.868L288.881 601.868C287.538 601.86 286.197 601.844 284.858 601.821L284.875 600.821C283.54 600.798 282.208 600.767 280.877 600.728L280.848 601.728C279.514 601.689 278.182 601.642 276.852 601.588L276.893 600.589C275.556 600.534 274.221 600.472 272.888 600.402L272.836 601.4C271.496 601.33 270.158 601.251 268.823 601.165L268.888 600.168C267.557 600.082 266.228 599.988 264.902 599.887L264.826 600.884C263.495 600.783 262.167 600.674 260.841 600.557L260.929 599.561C259.593 599.443 258.261 599.317 256.931 599.184L256.832 600.179C255.498 600.046 254.167 599.904 252.839 599.755L252.95 598.762C251.626 598.613 250.305 598.457 248.986 598.293L248.863 599.285C247.535 599.12 246.209 598.947 244.887 598.767L245.022 597.776C243.695 597.595 242.372 597.406 241.052 597.21L240.905 598.199C239.58 598.002 238.259 597.798 236.941 597.585L237.1 596.598C235.786 596.386 234.475 596.167 233.167 595.94L232.996 596.926C231.674 596.696 230.354 596.459 229.038 596.214L229.221 595.231C227.907 594.987 226.595 594.735 225.288 594.475L225.093 595.456C223.781 595.195 222.473 594.927 221.168 594.652L221.375 593.673C220.071 593.398 218.77 593.115 217.473 592.824L217.255 593.8C215.944 593.507 214.637 593.205 213.334 592.896L213.564 591.923C212.265 591.616 210.97 591.3 209.678 590.977L209.435 591.947C208.139 591.623 206.847 591.292 205.559 590.953L205.813 589.986C204.52 589.646 203.231 589.298 201.946 588.943L201.68 589.907C200.387 589.549 199.098 589.184 197.813 588.812L198.092 587.852C196.811 587.48 195.534 587.102 194.262 586.716L193.971 587.673C192.692 587.285 191.418 586.889 190.147 586.486L190.449 585.533C189.173 585.129 187.901 584.717 186.634 584.297L186.319 585.246C185.048 584.826 183.781 584.397 182.518 583.962L182.844 583.016C181.585 582.582 180.33 582.141 179.08 581.692L178.742 582.633C177.48 582.18 176.223 581.719 174.97 581.251L175.32 580.314C174.068 579.846 172.82 579.371 171.577 578.889L171.215 579.821C169.968 579.337 168.726 578.846 167.489 578.348L167.862 577.42C166.626 576.922 165.394 576.417 164.168 575.904L163.782 576.827C162.544 576.309 161.31 575.784 160.081 575.252L160.479 574.335C159.254 573.804 158.034 573.267 156.819 572.722L156.41 573.634C155.192 573.088 153.978 572.534 152.77 571.973L153.191 571.066C151.977 570.503 150.769 569.933 149.566 569.355L149.134 570.257C147.925 569.677 146.723 569.089 145.525 568.495L145.97 567.599C144.776 567.007 143.588 566.407 142.405 565.801L141.949 566.69C140.757 566.079 139.572 565.461 138.391 564.836L138.859 563.953C137.678 563.327 136.502 562.694 135.332 562.054L134.852 562.931C133.678 562.289 132.51 561.64 131.347 560.984L131.839 560.113C130.679 559.459 129.525 558.798 128.377 558.129L127.874 558.994C126.714 558.318 125.559 557.636 124.411 556.946L124.926 556.089C123.781 555.402 122.643 554.708 121.511 554.007L120.985 554.858C119.848 554.155 118.719 553.445 117.595 552.728L118.133 551.885C117.006 551.166 115.885 550.44 114.771 549.708L114.222 550.543C113.102 549.807 111.988 549.064 110.881 548.314L111.442 547.486C110.339 546.739 109.242 545.985 108.152 545.225L107.58 546.045C106.482 545.279 105.391 544.506 104.306 543.726L104.89 542.914C103.804 542.134 102.726 541.348 101.654 540.554L101.059 541.358C99.9838 540.562 98.9153 539.759 97.8536 538.95L98.4599 538.155C97.4004 537.347 96.3479 536.533 95.3025 535.713L94.6851 536.499C93.6295 535.671 92.5812 534.836 91.54 533.994L92.1687 533.216C91.1312 532.378 90.101 531.533 89.0781 530.681L88.4383 531.45C87.4117 530.595 86.3924 529.734 85.3805 528.867L86.0313 528.107C85.0162 527.237 84.0086 526.361 83.0086 525.478L82.3468 526.227C81.3426 525.341 80.3461 524.448 79.3573 523.549L80.0301 522.809C79.0449 521.913 78.0674 521.011 77.0976 520.103L76.414 520.833C75.4359 519.916 74.4656 518.994 73.5033 518.065L74.1977 517.346C73.2371 516.419 72.2844 515.485 71.3398 514.546L70.6347 515.255C69.6865 514.312 68.7465 513.363 67.8145 512.408L68.5303 511.71C67.5989 510.755 66.6756 509.794 65.7607 508.828L65.0344 509.515C64.1131 508.542 63.2001 507.562 62.2955 506.577L63.0323 505.901C62.1312 504.919 61.2385 503.931 60.3544 502.937L59.6074 503.602C58.7182 502.603 57.8376 501.598 56.9656 500.587L57.7229 499.934C56.8508 498.922 55.9875 497.905 55.1329 496.882L54.3655 497.523C53.5076 496.496 52.6585 495.464 51.8184 494.425L52.5959 493.796C51.7584 492.761 50.9299 491.72 50.1104 490.674L49.3231 491.29C48.4966 490.235 47.6792 489.173 46.871 488.107L47.6681 487.503C46.8632 486.44 46.0675 485.372 45.281 484.298L44.4743 484.889C43.6847 483.811 42.9044 482.728 42.1336 481.639L42.9498 481.061C42.1785 479.971 41.4167 478.876 40.6645 477.776L39.8389 478.34C39.0836 477.235 38.3379 476.124 37.6019 475.008L38.4367 474.458C37.7037 473.347 36.9804 472.23 36.2669 471.108L35.4232 471.645C34.7043 470.515 33.9954 469.379 33.2964 468.239L34.149 467.716C33.4526 466.58 32.7661 465.438 32.0896 464.291L31.2283 464.799C30.549 463.648 29.8798 462.491 29.2208 461.329L30.0906 460.836C29.433 459.676 28.7855 458.512 28.1484 457.343L27.2703 457.821C26.6299 456.646 25.9999 455.466 25.3803 454.281L26.2665 453.817C25.6496 452.637 25.0431 451.453 24.4471 450.263L23.553 450.711C22.9538 449.515 22.3651 448.314 21.7871 447.108L22.6888 446.676C22.1129 445.474 21.5476 444.268 20.9931 443.058L20.084 443.474C19.527 442.258 18.9809 441.038 18.4456 439.812L19.3619 439.412C18.8289 438.192 18.3067 436.967 17.7954 435.738L16.8721 436.122C16.3584 434.887 15.8557 433.648 15.3641 432.404L16.2941 432.036C15.8047 430.798 15.3264 429.555 14.8592 428.309L13.9228 428.659C13.4536 427.407 12.9957 426.151 12.5491 424.89L13.4917 424.556C13.0472 423.302 12.6141 422.043 12.1922 420.78L11.2438 421.097C10.82 419.829 10.4077 418.556 10.0068 417.279L10.9609 416.98C10.5621 415.71 10.1747 414.436 9.79888 413.158L8.83951 413.44C8.46259 412.158 8.0972 410.873 7.74345 409.583L8.70782 409.319C8.35568 408.035 8.01513 406.748 7.68627 405.457L6.71721 405.704C6.38704 404.407 6.0686 403.107 5.76198 401.804L6.73542 401.575C6.43123 400.281 6.13873 398.984 5.85802 397.684L4.88053 397.895C4.59852 396.588 4.32836 395.278 4.07014 393.965L5.05136 393.772C4.79437 392.464 4.54926 391.154 4.31614 389.839L3.33151 390.014C3.09862 388.701 2.87764 387.385 2.66865 386.066L3.65634 385.909C3.44831 384.596 3.25223 383.279 3.0682 381.959L2.07778 382.097C1.89289 380.771 1.7201 379.442 1.5595 378.11L2.55231 377.99C2.39353 376.673 2.24673 375.353 2.112 374.03L1.11714 374.131C0.981912 372.803 0.858784 371.472 0.747854 370.138L1.74441 370.055C1.634 368.728 1.53572 367.397 1.44968 366.063L0.451757 366.128C0.36591 364.797 0.292189 363.464 0.230688 362.128L1.22963 362.082C1.16859 360.756 1.11964 359.428 1.08287 358.096L0.083256 358.124C0.0463227 356.787 0.0216311 355.447 0.0092738 354.104L1.00923 354.095C1.00308 353.427 1 352.758 1 352.088C1 351.419 1.00308 350.75 1.00924 350.081L0.00927794 350.072C0.021638 348.73 0.0463323 347.39 0.0832682 346.052L1.08289 346.08C1.11965 344.749 1.1686 343.42 1.22965 342.094L0.230707 342.048C0.292211 340.712 0.365934 339.379 0.451782 338.048L1.44971 338.113C1.53575 336.779 1.63403 335.449 1.74445 334.121L0.747887 334.038C0.858819 332.704 0.981948 331.373 1.11718 330.045L2.11204 330.146C2.24677 328.823 2.39358 327.503 2.55235 326.186L1.55954 326.066C1.72014 324.734 1.89294 323.405 2.07783 322.079L3.06825 322.217C3.25229 320.897 3.44837 319.581 3.65639 318.267L2.6687 318.111C2.87769 316.791 3.09868 315.475 3.33157 314.162L4.3162 314.337C4.54932 313.023 4.79443 311.712 5.05142 310.405L4.0702 310.212C4.32842 308.898 4.59859 307.588 4.88059 306.282L5.85808 306.493C6.13879 305.192 6.43129 303.895 6.73549 302.602L5.76205 302.373C6.06867 301.069 6.38711 299.769 6.71728 298.473L7.68634 298.72C8.0152 297.429 8.35575 296.141 8.70788 294.858L7.74352 294.593C8.09727 293.304 8.46265 292.018 8.83958 290.736L9.79895 291.019C10.1748 289.741 10.5622 288.467 10.9609 287.197L10.0069 286.897C10.4077 285.62 10.8201 284.348 11.2438 283.079L12.1923 283.396C12.6141 282.134 13.0473 280.875 13.4917 279.62L12.5491 279.287C12.9958 278.026 13.4537 276.769 13.9228 275.517L14.8593 275.868C15.3264 274.621 15.8048 273.378 16.2942 272.14L15.3642 271.773C15.8558 270.529 16.3584 269.289 16.8721 268.054L17.7954 268.438C18.3067 267.209 18.8289 265.985 19.362 264.764L18.4456 264.364C18.9809 263.139 19.5271 261.918 20.084 260.702L20.9932 261.119C21.5477 259.908 22.1129 258.702 22.6888 257.501L21.7871 257.069C22.3651 255.863 22.9538 254.662 23.553 253.466L24.4471 253.914C25.0431 252.724 25.6496 251.539 26.2665 250.359L25.3803 249.896C25.9999 248.711 26.6299 247.531 27.2703 246.355L28.1484 246.834C28.7855 245.665 29.433 244.5 30.0906 243.341L29.2208 242.848C29.8798 241.686 30.549 240.529 31.2283 239.377L32.0897 239.885C32.7661 238.739 33.4526 237.597 34.149 236.46L33.2964 235.938C33.9954 234.797 34.7043 233.662 35.4231 232.532L36.2669 233.068C36.9804 231.947 37.7037 230.83 38.4367 229.719L37.6019 229.168C38.3379 228.052 39.0836 226.942 39.8389 225.837L40.6645 226.401C41.4167 225.301 42.1785 224.206 42.9497 223.116L42.1335 222.538C42.9044 221.449 43.6846 220.366 44.4742 219.288L45.281 219.878C46.0674 218.805 46.8631 217.737 47.6681 216.674L46.8709 216.07C47.6791 215.003 48.4965 213.942 49.323 212.887L50.1104 213.503C50.9298 212.457 51.7584 211.416 52.5958 210.381L51.8183 209.752C52.6585 208.713 53.5075 207.68 54.3654 206.653L55.1328 207.295C55.9874 206.272 56.8507 205.255 57.7228 204.243L56.9655 203.59C57.8375 202.579 58.7181 201.574 59.6073 200.575L60.3543 201.239C61.2384 200.246 62.1311 199.258 63.0321 198.276L62.2954 197.6C63.2 196.615 64.113 195.635 65.0343 194.662L65.7606 195.349C66.6755 194.382 67.5987 193.422 68.5302 192.467L67.8144 191.769C68.7463 190.814 69.6864 189.865 70.6346 188.922L71.3397 189.631C72.2843 188.691 73.237 187.758 74.1976 186.831L73.5032 186.112C74.4655 185.183 75.4358 184.26 76.4139 183.344L77.0975 184.074C78.0672 183.166 79.0448 182.264 80.03 181.368L79.3572 180.628C80.346 179.729 81.3425 178.836 82.3466 177.949L83.0085 178.699C84.0085 177.816 85.0161 176.94 86.0312 176.069L85.3804 175.31C86.3923 174.443 87.4116 173.582 88.4382 172.727L89.078 173.496C90.1009 172.644 91.1311 171.799 92.1685 170.961L91.5399 170.183C92.581 169.341 93.6294 168.506 94.6849 167.678L95.3024 168.464C96.3478 167.644 97.4003 166.829 98.4597 166.022L97.8535 165.227C98.9151 164.417 99.9837 163.615 101.059 162.819L101.654 163.622C102.726 162.829 103.804 162.043 104.889 161.263L104.306 160.451C105.39 159.671 106.482 158.898 107.58 158.132L108.152 158.952C109.242 158.192 110.339 157.438 111.442 156.69L110.881 155.862C111.988 155.113 113.102 154.37 114.222 153.633L114.771 154.469C115.885 153.736 117.006 153.011 118.133 152.292L117.595 151.449C118.718 150.732 119.848 150.022 120.984 149.319L121.511 150.169C122.643 149.469 123.781 148.775 124.926 148.088L124.411 147.23C125.559 146.541 126.713 145.859 127.874 145.183L128.377 146.047C129.525 145.379 130.679 144.718 131.838 144.063L131.347 143.193C132.51 142.537 133.678 141.887 134.852 141.245L135.332 142.123C136.502 141.483 137.678 140.85 138.859 140.224L138.391 139.341C139.572 138.715 140.757 138.097 141.949 137.486L142.405 138.376C143.588 137.77 144.776 137.17 145.97 136.578L145.525 135.682C146.722 135.087 147.925 134.5 149.134 133.92L149.566 134.822C150.769 134.244 151.977 133.674 153.191 133.111L152.77 132.203C153.978 131.643 155.192 131.089 156.41 130.542L156.819 131.455C158.034 130.91 159.254 130.372 160.479 129.842L160.081 128.924C161.31 128.392 162.543 127.867 163.782 127.35L164.168 128.273C165.394 127.76 166.626 127.255 167.862 126.757L167.489 125.829C168.726 125.331 169.968 124.839 171.215 124.355L171.577 125.288C172.82 124.805 174.068 124.33 175.32 123.862L174.97 122.926C176.223 122.458 177.48 121.997 178.742 121.544L179.08 122.485C180.33 122.036 181.585 121.594 182.844 121.16L182.518 120.215C183.781 119.779 185.048 119.351 186.319 118.93L186.634 119.88C187.901 119.46 189.173 119.048 190.449 118.644L190.147 117.69C191.418 117.287 192.692 116.892 193.971 116.504L194.262 117.461C195.534 117.075 196.811 116.696 198.092 116.325L197.814 115.365C199.098 114.992 200.387 114.627 201.68 114.27L201.946 115.234C203.231 114.879 204.52 114.531 205.813 114.191L205.559 113.224C206.847 112.885 208.139 112.553 209.435 112.229L209.678 113.2C210.97 112.877 212.265 112.561 213.565 112.253L213.334 111.28C214.637 110.971 215.944 110.67 217.255 110.377L217.473 111.352C218.77 111.062 220.071 110.779 221.375 110.503L221.168 109.525C222.473 109.249 223.781 108.981 225.093 108.721L225.288 109.702C226.596 109.442 227.907 109.19 229.221 108.945L229.038 107.962C230.354 107.718 231.674 107.48 232.996 107.251L233.167 108.236C234.475 108.01 235.786 107.79 237.1 107.579L236.941 106.591C238.259 106.379 239.581 106.174 240.905 105.977L241.052 106.967C242.372 106.77 243.696 106.582 245.022 106.401L244.887 105.41C246.209 105.229 247.535 105.056 248.863 104.891L248.987 105.884C250.305 105.72 251.626 105.564 252.951 105.415L252.839 104.421C254.167 104.272 255.498 104.131 256.832 103.997L256.932 104.992C258.261 104.859 259.594 104.734 260.929 104.616L260.841 103.62C262.167 103.503 263.495 103.394 264.827 103.292L264.903 104.289C266.229 104.188 267.557 104.095 268.888 104.009L268.824 103.011C270.159 102.925 271.496 102.847 272.836 102.776L272.889 103.775C274.221 103.705 275.556 103.643 276.894 103.588L276.853 102.589C278.182 102.535 279.514 102.488 280.849 102.449L280.878 103.449C282.208 103.41 283.541 103.379 284.876 103.355L284.858 102.356C286.197 102.332 287.538 102.317 288.881 102.309L288.887 103.309C289.557 103.305 290.227 103.303 290.897 103.303C291.568 103.303 292.239 103.305 292.908 103.309L292.914 102.309C294.257 102.317 295.598 102.332 296.937 102.356L296.92 103.355C298.254 103.379 299.587 103.41 300.917 103.449L300.947 102.449C302.281 102.488 303.613 102.535 304.942 102.589L304.902 103.588C306.239 103.643 307.574 103.705 308.906 103.775L308.959 102.776C310.299 102.847 311.636 102.925 312.971 103.011L312.907 104.009C314.238 104.095 315.567 104.188 316.893 104.29L316.969 103.292C318.3 103.394 319.628 103.503 320.954 103.62L320.866 104.616C322.201 104.734 323.534 104.859 324.864 104.992L324.963 103.997C326.297 104.131 327.628 104.272 328.956 104.421L328.845 105.415C330.169 105.564 331.49 105.72 332.809 105.884L332.932 104.891C334.26 105.057 335.586 105.229 336.908 105.41L336.773 106.401C338.099 106.582 339.423 106.77 340.743 106.967L340.89 105.978C342.215 106.174 343.536 106.379 344.854 106.591L344.695 107.579C346.009 107.79 347.32 108.01 348.628 108.236L348.799 107.251C350.121 107.48 351.441 107.718 352.757 107.962L352.574 108.945C353.888 109.19 355.199 109.442 356.507 109.702L356.702 108.721C358.014 108.981 359.322 109.249 360.627 109.525L360.42 110.503C361.724 110.779 363.025 111.062 364.322 111.352L364.54 110.377C365.851 110.67 367.158 110.971 368.461 111.28L368.23 112.253C369.53 112.561 370.825 112.877 372.117 113.2L372.36 112.229C373.656 112.553 374.948 112.885 376.236 113.224L375.982 114.191C377.275 114.531 378.564 114.879 379.849 115.234L380.115 114.27C381.408 114.627 382.697 114.992 383.981 115.365L383.703 116.325C384.984 116.696 386.261 117.075 387.533 117.461L387.824 116.504C389.102 116.892 390.377 117.287 391.648 117.69L391.346 118.644C392.622 119.048 393.894 119.46 395.161 119.88L395.475 118.93C396.747 119.351 398.014 119.779 399.277 120.215L398.951 121.16C400.21 121.594 401.464 122.036 402.714 122.485L403.052 121.544C404.314 121.997 405.572 122.458 406.825 122.926L406.475 123.862C407.727 124.33 408.975 124.805 410.218 125.288L410.58 124.355C411.826 124.839 413.069 125.331 414.306 125.829L413.932 126.757C415.169 127.255 416.4 127.76 417.627 128.273L418.013 127.35C419.251 127.867 420.485 128.392 421.714 128.924L421.316 129.842C422.541 130.372 423.761 130.91 424.975 131.455L425.385 130.542C426.603 131.089 427.817 131.643 429.025 132.203L428.604 133.111C429.818 133.674 431.026 134.244 432.228 134.821L432.661 133.92C433.869 134.5 435.072 135.087 436.27 135.682L435.825 136.578C437.019 137.17 438.207 137.77 439.39 138.376L439.846 137.486C441.037 138.097 442.223 138.715 443.403 139.34L442.935 140.224C444.117 140.85 445.293 141.483 446.463 142.123L446.943 141.245C448.117 141.887 449.285 142.536 450.448 143.192L449.956 144.063C451.116 144.718 452.27 145.379 453.418 146.047L453.921 145.183C455.081 145.859 456.236 146.541 457.384 147.23L456.869 148.088C458.014 148.775 459.152 149.469 460.284 150.169L460.81 149.319C461.946 150.022 463.076 150.732 464.2 151.449L463.662 152.292C464.789 153.011 465.909 153.736 467.024 154.469L467.573 153.633C468.693 154.369 469.806 155.113 470.913 155.862L470.353 156.69C471.456 157.438 472.553 158.192 473.643 158.952L474.215 158.132C475.313 158.898 476.404 159.671 477.489 160.45L476.905 161.263C477.991 162.042 479.069 162.829 480.141 163.622L480.736 162.819C481.811 163.615 482.88 164.417 483.941 165.226L483.335 166.022C484.394 166.829 485.447 167.643 486.492 168.464L487.11 167.677C488.165 168.506 489.214 169.341 490.255 170.183L489.626 170.96C490.664 171.799 491.694 172.644 492.717 173.496L493.357 172.727C494.383 173.582 495.402 174.443 496.414 175.31L495.764 176.069C496.779 176.939 497.786 177.816 498.786 178.699L499.448 177.949C500.452 178.836 501.449 179.729 502.438 180.628L501.765 181.368C502.75 182.264 503.727 183.166 504.697 184.074L505.381 183.344C506.359 184.26 507.329 185.183 508.292 186.111L507.597 186.831C508.558 187.758 509.51 188.691 510.455 189.631L511.16 188.922C512.108 189.864 513.048 190.813 513.98 191.769L513.265 192.467C514.196 193.422 515.119 194.382 516.034 195.349L516.76 194.661C517.682 195.635 518.595 196.614 519.499 197.6L518.763 198.276C519.664 199.258 520.556 200.246 521.44 201.239L522.188 200.574C523.077 201.574 523.957 202.579 524.829 203.59L524.072 204.243C524.944 205.254 525.807 206.272 526.662 207.294L527.429 206.653C528.287 207.68 529.136 208.713 529.976 209.752L529.199 210.38C530.036 211.416 530.865 212.457 531.684 213.503L532.472 212.886C533.298 213.942 534.116 215.003 534.924 216.07L534.127 216.674C534.932 217.737 535.727 218.805 536.514 219.878L537.321 219.287C538.11 220.366 538.89 221.449 539.661 222.538L538.845 223.116C539.616 224.205 540.378 225.301 541.13 226.401L541.956 225.837C542.711 226.942 543.457 228.052 544.193 229.168L543.358 229.719C544.091 230.83 544.814 231.947 545.528 233.068L546.372 232.532C547.091 233.662 547.799 234.797 548.498 235.938L547.646 236.46C548.342 237.597 549.029 238.739 549.705 239.885L550.567 239.377C551.246 240.529 551.915 241.686 552.574 242.848L551.704 243.341C552.362 244.5 553.009 245.665 553.646 246.834L554.525 246.355C555.165 247.531 555.795 248.711 556.415 249.896L555.528 250.359C556.145 251.539 556.752 252.724 557.348 253.914L558.242 253.466C558.841 254.662 559.43 255.863 560.008 257.069L559.106 257.501C559.682 258.702 560.247 259.908 560.802 261.119L561.711 260.702C562.268 261.918 562.814 263.139 563.349 264.364L562.433 264.765C562.966 265.985 563.488 267.209 563.999 268.439L564.923 268.054C565.436 269.289 565.939 270.529 566.431 271.773L565.501 272.14C565.99 273.379 566.469 274.621 566.936 275.868L567.872 275.517C568.341 276.77 568.799 278.026 569.246 279.287L568.303 279.621C568.748 280.875 569.181 282.134 569.603 283.396L570.551 283.08C570.975 284.348 571.387 285.621 571.788 286.897L570.834 287.197C571.233 288.467 571.62 289.741 571.996 291.019L572.955 290.737C573.332 292.018 573.698 293.304 574.051 294.593L573.087 294.858C573.439 296.141 573.78 297.429 574.109 298.72L575.078 298.473C575.408 299.769 575.726 301.069 576.033 302.373L575.059 302.602C575.364 303.895 575.656 305.192 575.937 306.493L576.914 306.282C577.196 307.588 577.466 308.899 577.725 310.212L576.744 310.405C577 311.712 577.246 313.023 577.479 314.337L578.463 314.163C578.696 315.475 578.917 316.792 579.126 318.111L578.139 318.268C578.347 319.581 578.543 320.898 578.727 322.217L579.717 322.079C579.902 323.405 580.075 324.734 580.235 326.067L579.243 326.186C579.401 327.503 579.548 328.824 579.683 330.147L580.678 330.045C580.813 331.374 580.936 332.705 581.047 334.038L580.05 334.121C580.161 335.449 580.259 336.78 580.345 338.113L581.343 338.049C581.429 339.379 581.503 340.713 581.564 342.049L580.565 342.094C580.626 343.42 580.675 344.749 580.712 346.08L581.712 346.053Z" stroke="white" stroke-width="2" stroke-dasharray="4 4"/>
<path d="M580.234 172.589C299.154 -43.9344 119.279 129.252 64.4763 242.911C-35.6707 453.057 21.5504 540.223 82.8366 580.616C120.034 605.132 228.606 576.527 277.289 544.638C397.465 502.118 532.664 542.73 585.241 568.35C714.765 614.141 736.574 517.109 731.289 462.869C721.942 322.881 626.691 211.021 580.234 172.589Z" fill="url(#pattern0)"/>
</svg>
