<svg width="568" height="357" viewBox="0 0 568 357" fill="none" xmlns="http://www.w3.org/2000/svg">
<path d="M420.558 218.065C420.076 218.993 419.572 219.905 419.052 220.812C399.121 255.53 352.755 277.091 274.562 265.679C230.165 258.892 211.257 283.789 192.948 309.29C192.635 309.73 192.322 310.17 192.004 310.61C172.831 337.353 153.849 364.169 106.386 355.255C56.0693 347.301 25.016 306.453 20.2108 262.842C20.1523 262.312 20.0994 261.776 20.0515 261.246C17.352 232.971 25.6948 203.694 46.9786 181.592C59.835 168.245 78.1011 161.155 96.9558 161.377C102.633 161.483 108.307 161.062 113.907 160.121C115.142 159.903 116.341 159.665 117.508 159.394C141.528 153.906 152.597 137.589 159.386 117.676C159.545 117.205 159.704 116.733 159.858 116.255C175.446 68.7682 168.238 2.11659 252.981 11.9216C328.814 17.5108 384.466 59.5519 411.765 108.057C412.035 108.545 412.306 109.033 412.571 109.521C420.074 122.979 425.428 137.527 428.44 152.638C428.609 153.487 428.763 154.335 428.906 155.184C432.768 177.71 430.238 199.606 420.558 218.065Z" fill="white" fill-opacity="0.1"/>
<path d="M412.571 109.521C407.13 115.986 401 121.837 394.289 126.972C368.147 147.017 335.035 157.888 302.37 160.168C285.582 161.348 268.712 160.203 252.239 156.764C235.479 153.253 219.493 147.07 204.012 139.848C188.954 132.821 174.343 124.899 159.386 117.676C159.545 117.204 159.704 116.732 159.858 116.255C176.167 124.103 192.142 132.752 208.642 140.229C224.187 147.277 240.279 153.025 257.108 156.101C273.899 159.149 291.035 159.82 308.013 158.095C340.589 154.818 373.726 142.801 398.77 121.304C403.473 117.268 407.82 112.836 411.765 108.057C412.035 108.545 412.306 109.033 412.571 109.521Z" fill="white"/>
<path d="M299.388 0.498798C299.35 0.498798 299.312 0.50001 299.274 0.502438C259.077 3.02042 227.588 36.5679 227.588 76.8768C227.588 117.186 259.077 150.734 299.274 153.251C299.515 153.267 299.755 153.233 299.982 153.152C300.208 153.071 300.416 152.943 300.591 152.778C300.765 152.616 300.904 152.419 300.999 152.2C301.094 151.981 301.142 151.745 301.141 151.507V2.24673C301.14 1.78272 300.955 1.33807 300.626 1.01037C300.298 0.68267 299.852 0.498682 299.388 0.498779L299.388 0.498798Z" fill="white"/>
<path d="M360.848 127.879C360.252 127.879 359.681 127.642 359.259 127.222L307.284 75.255C307.075 75.0472 306.909 74.7999 306.796 74.5276C306.683 74.2553 306.625 73.9632 306.626 73.6685V2.24685C306.625 1.94038 306.687 1.63697 306.809 1.35572C306.931 1.07447 307.11 0.821452 307.334 0.61259C307.559 0.401139 307.825 0.238103 308.115 0.133582C308.406 0.0290605 308.715 -0.0147171 309.023 0.00494794C349.482 2.5392 381.176 36.3055 381.176 76.8769C381.177 95.3059 374.569 113.125 362.552 127.098C362.35 127.332 362.102 127.522 361.823 127.656C361.544 127.791 361.241 127.866 360.932 127.878C360.904 127.879 360.876 127.879 360.848 127.879Z" fill="white"/>
<path d="M308.879 153.753C308.306 153.753 307.754 153.534 307.335 153.142C307.11 152.933 306.931 152.68 306.809 152.398C306.687 152.117 306.625 151.813 306.626 151.506V87.0653C306.626 86.6216 306.758 86.1879 307.004 85.819C307.251 85.4501 307.602 85.1625 308.012 84.9927C308.422 84.8229 308.873 84.7785 309.308 84.865C309.743 84.9515 310.143 85.1651 310.457 85.4788L355.812 130.826C356.027 131.042 356.196 131.299 356.309 131.582C356.422 131.865 356.476 132.168 356.469 132.473C356.461 132.778 356.391 133.078 356.264 133.355C356.136 133.632 355.954 133.88 355.727 134.084C342.815 145.707 326.358 152.636 309.019 153.749C308.973 153.752 308.926 153.753 308.879 153.753Z" fill="#2C10EF"/>
<path d="M428.906 155.184C421.63 168.085 411.356 179.465 399.593 188.486C373.451 208.53 340.339 219.401 307.674 221.681C290.886 222.861 274.016 221.716 257.543 218.277C240.783 214.766 224.797 208.583 209.316 201.361C193.553 194.006 178.273 185.664 162.579 178.171C146.901 170.684 130.788 164.299 113.907 160.12C115.142 159.903 116.341 159.664 117.508 159.394C118.611 159.68 119.711 159.977 120.807 160.285C153.817 169.512 182.951 187.695 213.946 201.743C229.491 208.79 245.583 214.538 262.411 217.614C279.202 220.662 296.339 221.333 313.317 219.608C345.892 216.331 379.03 204.315 404.074 182.817C413.987 174.345 422.248 164.113 428.44 152.638C428.61 153.487 428.763 154.335 428.906 155.184Z" fill="white"/>
<path d="M101.183 268.463C133.705 277.552 162.462 295.338 192.948 309.29C192.635 309.73 192.322 310.17 192.004 310.61C191.23 310.255 190.461 309.9 189.692 309.539C173.929 302.184 158.649 293.843 142.955 286.35C126.943 278.703 110.48 272.207 93.2061 268.034C69.3283 262.283 44.6623 260.529 20.2108 262.842C20.1523 262.312 20.0994 261.776 20.0515 261.246C47.3092 258.673 74.8077 261.12 101.183 268.463Z" fill="white"/>
<path d="M231.899 319.629H0.607074C0.44607 319.629 0.29166 319.565 0.177813 319.451C0.0639658 319.337 7.62939e-06 319.183 7.62939e-06 319.022C7.62939e-06 318.861 0.0639658 318.707 0.177813 318.593C0.29166 318.479 0.44607 318.415 0.607074 318.415H231.899C232.06 318.415 232.215 318.479 232.329 318.593C232.443 318.707 232.507 318.861 232.507 319.022C232.507 319.183 232.443 319.337 232.329 319.451C232.215 319.565 232.06 319.629 231.899 319.629Z" fill="#E5E4E7"/>
<path d="M94.1677 237.746C102.402 237.746 109.078 231.072 109.078 222.839C109.078 214.605 102.402 207.931 94.1677 207.931C85.933 207.931 79.2575 214.605 79.2575 222.839C79.2575 231.072 85.933 237.746 94.1677 237.746Z" fill="#A0616A"/>
<path d="M149.957 328.03L150.305 335.463L121.795 340.343L121.282 329.373L149.957 328.03Z" fill="#A0616A"/>
<path d="M157.075 325.796L157.866 342.695L157.563 342.709C155.221 342.863 152.887 342.299 150.875 341.092C149.055 339.932 148.007 338.326 147.924 336.569V336.569L147.441 326.248L157.075 325.796Z" fill="#4A4950"/>
<path d="M157.075 325.796L157.866 342.695L157.563 342.709C155.221 342.863 152.887 342.299 150.875 341.092C149.055 339.932 148.007 338.326 147.924 336.569V336.569L147.441 326.248L157.075 325.796Z" fill="black" fill-opacity="0.2"/>
<path d="M149.159 340.261L156.602 340.261L160.142 311.558L149.158 311.559L149.159 340.261Z" fill="#A0616A"/>
<path d="M147.261 337.832L161.918 337.831H161.918C163.145 337.831 164.36 338.073 165.493 338.542C166.626 339.011 167.656 339.699 168.523 340.566C169.391 341.433 170.079 342.463 170.548 343.596C171.018 344.729 171.259 345.944 171.259 347.17V347.473L147.261 347.474L147.261 337.832Z" fill="#4A4950"/>
<path d="M147.261 337.832L161.918 337.831H161.918C163.145 337.831 164.36 338.073 165.493 338.542C166.626 339.011 167.656 339.699 168.523 340.566C169.391 341.433 170.079 342.463 170.548 343.596C171.018 344.729 171.259 345.944 171.259 347.17V347.473L147.261 347.474L147.261 337.832Z" fill="black" fill-opacity="0.2"/>
<path d="M78.8959 333.308C79.7113 332.814 80.4085 332.148 80.9383 331.355C81.4682 330.563 81.8178 329.664 81.9625 328.721C82.1073 327.779 82.0436 326.817 81.7761 325.902C81.5086 324.987 81.0436 324.142 80.4141 323.426L86.3544 264.335L72.2066 265.324L70.8162 323.097C69.6835 324.234 69.0074 325.748 68.9159 327.35C68.8244 328.952 69.324 330.532 70.3199 331.791C71.3159 333.049 72.739 333.899 74.3195 334.179C75.9001 334.458 77.5284 334.149 78.8959 333.308V333.308Z" fill="#A0616A"/>
<path d="M86.2852 274.578L71.625 272.792C71.2079 272.741 70.8067 272.601 70.4486 272.381C70.0905 272.161 69.784 271.867 69.55 271.518C69.316 271.169 69.16 270.773 69.0926 270.359C69.0251 269.944 69.0479 269.52 69.1593 269.114L73.0631 254.92C73.3352 252.788 74.4419 250.85 76.1406 249.532C77.8393 248.215 79.9913 247.624 82.1247 247.891C84.2581 248.157 86.1989 249.258 87.5214 250.953C88.844 252.648 89.4403 254.798 89.1798 256.932L89.5621 271.6C89.5729 272.02 89.493 272.438 89.328 272.824C89.1629 273.211 88.9165 273.557 88.6055 273.839C88.2945 274.122 87.9263 274.334 87.5259 274.462C87.1255 274.589 86.7023 274.629 86.2852 274.578Z" fill="#2C10EF"/>
<path d="M84.2344 341.678C82.4579 341.557 80.745 340.969 79.2687 339.973C77.7925 338.978 76.6052 337.61 75.827 336.009C75.0487 334.407 74.7071 332.629 74.8365 330.853C74.966 329.078 75.562 327.368 76.5643 325.896L86.1403 315.956L121.047 284.698L139.708 269.215C140.797 268.311 142.098 267.699 143.488 267.436C144.878 267.172 146.312 267.266 147.656 267.708C149 268.15 150.21 268.927 151.172 269.964C152.134 271.001 152.817 272.266 153.156 273.64L162.906 313.073C163.07 313.729 162.983 314.423 162.664 315.019C162.345 315.615 161.816 316.071 161.179 316.299L150.55 320.125C150.194 320.253 149.816 320.306 149.438 320.28C149.061 320.254 148.693 320.15 148.358 319.975C148.023 319.799 147.728 319.556 147.492 319.261C147.255 318.965 147.083 318.624 146.986 318.259L142.942 303.099L120.446 324.602L127.465 327.185C128.108 327.425 128.639 327.898 128.951 328.51C129.263 329.121 129.334 329.828 129.15 330.49L126.882 338.524C126.726 339.085 126.394 339.58 125.935 339.938C125.476 340.296 124.914 340.497 124.332 340.513L84.2344 341.678Z" fill="#4A4950"/>
<path d="M84.2344 341.678C82.4579 341.557 80.745 340.969 79.2687 339.973C77.7925 338.978 76.6052 337.61 75.827 336.009C75.0487 334.407 74.7071 332.629 74.8365 330.853C74.966 329.078 75.562 327.368 76.5643 325.896L86.1403 315.956L121.047 284.698L139.708 269.215C140.797 268.311 142.098 267.699 143.488 267.436C144.878 267.172 146.312 267.266 147.656 267.708C149 268.15 150.21 268.927 151.172 269.964C152.134 271.001 152.817 272.266 153.156 273.64L162.906 313.073C163.07 313.729 162.983 314.423 162.664 315.019C162.345 315.615 161.816 316.071 161.179 316.299L150.55 320.125C150.194 320.253 149.816 320.306 149.438 320.28C149.061 320.254 148.693 320.15 148.358 319.975C148.023 319.799 147.728 319.556 147.492 319.261C147.255 318.965 147.083 318.624 146.986 318.259L142.942 303.099L120.446 324.602L127.465 327.185C128.108 327.425 128.639 327.898 128.951 328.51C129.263 329.121 129.334 329.828 129.15 330.49L126.882 338.524C126.726 339.085 126.394 339.58 125.935 339.938C125.476 340.296 124.914 340.497 124.332 340.513L84.2344 341.678Z" fill="black" fill-opacity="0.2"/>
<path d="M83.281 319.266L82.3577 285.547L76.5333 270.757C75.3441 267.74 74.8289 264.499 75.0236 261.262C75.2183 258.025 76.1183 254.869 77.6606 252.016C79.2029 249.163 81.3502 246.681 83.9522 244.745C86.5542 242.809 89.5481 241.464 92.7242 240.806C93.2037 240.706 93.6817 240.609 94.1584 240.515C97.2052 239.91 100.345 239.95 103.375 240.631C106.406 241.313 109.26 242.621 111.754 244.472C114.249 246.322 116.328 248.675 117.859 251.377C119.389 254.08 120.337 257.073 120.641 260.164L123.377 285.548L123.366 285.597C119.002 305.006 106.373 315.688 83.6216 319.213L83.281 319.266Z" fill="#2C10EF"/>
<path d="M97.0557 295.844C97.3877 295.792 97.7233 295.767 98.0592 295.769L114.911 270.825L111.719 264.245L121.022 258.132L127.804 269.231C128.352 270.128 128.594 271.178 128.494 272.224C128.394 273.27 127.957 274.255 127.25 275.032L104.186 300.35C104.548 301.593 104.524 302.915 104.116 304.143C103.707 305.371 102.935 306.446 101.901 307.224C100.868 308.002 99.6213 308.447 98.3283 308.5C97.0353 308.553 95.7569 308.211 94.6631 307.519C93.5693 306.828 92.712 305.82 92.2051 304.63C91.6982 303.439 91.5658 302.123 91.8255 300.855C92.0853 299.588 92.7248 298.429 93.6591 297.534C94.5934 296.639 95.7781 296.049 97.0557 295.844Z" fill="#A0616A"/>
<path d="M113.436 270.361C113.058 270.256 112.707 270.07 112.407 269.816C112.108 269.563 111.866 269.248 111.699 268.892L105.871 256.484C104.76 254.811 104.357 252.767 104.752 250.798C105.146 248.829 106.305 247.097 107.974 245.981C109.644 244.865 111.688 244.456 113.658 244.845C115.628 245.233 117.364 246.387 118.485 248.052L127.694 258.269C127.956 258.561 128.153 258.906 128.271 259.28C128.388 259.655 128.424 260.05 128.374 260.44C128.325 260.829 128.193 261.203 127.986 261.537C127.779 261.87 127.503 262.156 127.176 262.373L115.683 270.006C115.356 270.223 114.986 270.368 114.598 270.429C114.211 270.49 113.814 270.467 113.436 270.361Z" fill="#2C10EF"/>
<path d="M291.928 234.402H242.713C242.004 234.402 241.323 234.121 240.822 233.619C240.32 233.118 240.038 232.437 240.038 231.728C240.038 231.019 240.32 230.339 240.822 229.837C241.323 229.335 242.004 229.054 242.713 229.054H291.928C292.638 229.054 293.318 229.335 293.819 229.837C294.321 230.339 294.603 231.019 294.603 231.728C294.603 232.437 294.321 233.118 293.819 233.619C293.318 234.121 292.638 234.402 291.928 234.402Z" fill="#E5E4E7"/>
<path d="M228.002 237.077C226.891 237.077 225.805 236.747 224.882 236.13C223.958 235.513 223.238 234.636 222.813 233.61C222.388 232.584 222.277 231.454 222.493 230.365C222.71 229.276 223.245 228.275 224.03 227.49C224.816 226.704 225.817 226.169 226.906 225.953C227.996 225.736 229.125 225.847 230.152 226.272C231.178 226.697 232.055 227.417 232.673 228.341C233.29 229.264 233.619 230.35 233.619 231.461C233.617 232.95 233.025 234.377 231.972 235.43C230.919 236.483 229.491 237.075 228.002 237.077Z" fill="#4A4950"/>
<path d="M228.002 237.077C226.891 237.077 225.805 236.747 224.882 236.13C223.958 235.513 223.238 234.636 222.813 233.61C222.388 232.584 222.277 231.454 222.493 230.365C222.71 229.276 223.245 228.275 224.03 227.49C224.816 226.704 225.817 226.169 226.906 225.953C227.996 225.736 229.125 225.847 230.152 226.272C231.178 226.697 232.055 227.417 232.673 228.341C233.29 229.264 233.619 230.35 233.619 231.461C233.617 232.95 233.025 234.377 231.972 235.43C230.919 236.483 229.491 237.075 228.002 237.077Z" fill="black" fill-opacity="0.2"/>
<path d="M291.928 250.448H242.713C242.004 250.448 241.323 250.166 240.822 249.665C240.32 249.163 240.038 248.483 240.038 247.774C240.038 247.064 240.32 246.384 240.822 245.883C241.323 245.381 242.004 245.099 242.713 245.099H291.928C292.638 245.099 293.318 245.381 293.819 245.883C294.321 246.384 294.603 247.064 294.603 247.774C294.603 248.483 294.321 249.163 293.819 249.665C293.318 250.166 292.638 250.448 291.928 250.448Z" fill="#E5E4E7"/>
<path d="M228.002 253.122C226.891 253.122 225.805 252.793 224.882 252.176C223.958 251.559 223.238 250.682 222.813 249.655C222.388 248.629 222.277 247.5 222.493 246.411C222.71 245.321 223.245 244.321 224.03 243.535C224.816 242.75 225.817 242.215 226.906 241.998C227.996 241.782 229.125 241.893 230.152 242.318C231.178 242.743 232.055 243.463 232.673 244.386C233.29 245.31 233.619 246.396 233.619 247.506C233.617 248.995 233.025 250.423 231.972 251.476C230.919 252.528 229.491 253.121 228.002 253.122Z" fill="#4A4950"/>
<path d="M228.002 253.122C226.891 253.122 225.805 252.793 224.882 252.176C223.958 251.559 223.238 250.682 222.813 249.655C222.388 248.629 222.277 247.5 222.493 246.411C222.71 245.321 223.245 244.321 224.03 243.535C224.816 242.75 225.817 242.215 226.906 241.998C227.996 241.782 229.125 241.893 230.152 242.318C231.178 242.743 232.055 243.463 232.673 244.386C233.29 245.31 233.619 246.396 233.619 247.506C233.617 248.995 233.025 250.423 231.972 251.476C230.919 252.528 229.491 253.121 228.002 253.122Z" fill="black" fill-opacity="0.2"/>
<path d="M291.928 266.494H242.713C242.004 266.494 241.323 266.212 240.822 265.71C240.32 265.209 240.038 264.529 240.038 263.819C240.038 263.11 240.32 262.43 240.822 261.928C241.323 261.427 242.004 261.145 242.713 261.145H291.928C292.638 261.145 293.318 261.427 293.819 261.928C294.321 262.43 294.603 263.11 294.603 263.819C294.603 264.529 294.321 265.209 293.819 265.71C293.318 266.212 292.638 266.494 291.928 266.494Z" fill="#E5E4E7"/>
<path d="M228.002 269.168C226.891 269.168 225.805 268.839 224.882 268.222C223.958 267.604 223.238 266.727 222.813 265.701C222.388 264.675 222.277 263.546 222.493 262.456C222.71 261.367 223.245 260.366 224.03 259.581C224.816 258.796 225.817 258.261 226.906 258.044C227.996 257.827 229.125 257.938 230.152 258.364C231.178 258.789 232.055 259.508 232.673 260.432C233.29 261.355 233.619 262.441 233.619 263.552C233.617 265.041 233.025 266.468 231.972 267.521C230.919 268.574 229.491 269.166 228.002 269.168Z" fill="#4A4950"/>
<path d="M228.002 269.168C226.891 269.168 225.805 268.839 224.882 268.222C223.958 267.604 223.238 266.727 222.813 265.701C222.388 264.675 222.277 263.546 222.493 262.456C222.71 261.367 223.245 260.366 224.03 259.581C224.816 258.796 225.817 258.261 226.906 258.044C227.996 257.827 229.125 257.938 230.152 258.364C231.178 258.789 232.055 259.508 232.673 260.432C233.29 261.355 233.619 262.441 233.619 263.552C233.617 265.041 233.025 266.468 231.972 267.521C230.919 268.574 229.491 269.166 228.002 269.168Z" fill="black" fill-opacity="0.2"/>
<path d="M306.068 247.702H326.396C326.538 247.702 326.674 247.645 326.774 247.545C326.875 247.445 326.931 247.309 326.931 247.167V121.518C326.931 121.376 326.875 121.24 326.774 121.14C326.674 121.04 326.538 120.983 326.396 120.983C326.254 120.983 326.118 121.04 326.018 121.14C325.917 121.24 325.861 121.376 325.861 121.518V246.632H306.068C305.998 246.632 305.928 246.645 305.863 246.672C305.798 246.699 305.739 246.738 305.689 246.788C305.639 246.838 305.599 246.897 305.572 246.962C305.545 247.027 305.531 247.096 305.531 247.167C305.531 247.237 305.545 247.307 305.572 247.372C305.599 247.437 305.639 247.496 305.689 247.546C305.739 247.595 305.798 247.635 305.863 247.661C305.928 247.688 305.998 247.702 306.068 247.702Z" fill="#4A4950"/>
<path d="M306.068 247.702H326.396C326.538 247.702 326.674 247.645 326.774 247.545C326.875 247.445 326.931 247.309 326.931 247.167V121.518C326.931 121.376 326.875 121.24 326.774 121.14C326.674 121.04 326.538 120.983 326.396 120.983C326.254 120.983 326.118 121.04 326.018 121.14C325.917 121.24 325.861 121.376 325.861 121.518V246.632H306.068C305.998 246.632 305.928 246.645 305.863 246.672C305.798 246.699 305.739 246.738 305.689 246.788C305.639 246.838 305.599 246.897 305.572 246.962C305.545 247.027 305.531 247.096 305.531 247.167C305.531 247.237 305.545 247.307 305.572 247.372C305.599 247.437 305.639 247.496 305.689 247.546C305.739 247.595 305.798 247.635 305.863 247.661C305.928 247.688 305.998 247.702 306.068 247.702Z" fill="black" fill-opacity="0.2"/>
<path d="M393.174 39.3957C391.814 39.5051 390.453 39.2092 389.262 38.5452C388.071 37.8811 387.104 36.8789 386.482 35.6652C385.861 34.4515 385.614 33.0809 385.771 31.7266C385.929 30.3723 386.485 29.0952 387.369 28.0568C388.252 27.0184 389.424 26.2653 390.736 25.8928C392.048 25.5203 393.441 25.545 394.738 25.964C396.036 26.3829 397.18 27.1772 398.027 28.2464C398.873 29.3155 399.383 30.6116 399.493 31.9707C399.639 33.7931 399.056 35.5992 397.871 36.9916C396.686 38.3841 394.996 39.2489 393.174 39.3957ZM393.088 38.3385C394.239 38.2459 395.335 37.8143 396.24 37.0984C397.145 36.3825 397.817 35.4144 398.172 34.3165C398.526 33.2186 398.547 32.0403 398.232 30.9305C397.917 29.8207 397.279 28.8293 396.401 28.0817C395.522 27.334 394.441 26.8637 393.295 26.7302C392.149 26.5968 390.989 26.8061 389.962 27.3317C388.935 27.8574 388.086 28.6758 387.524 29.6834C386.962 30.691 386.712 31.8426 386.805 32.9926C386.866 33.7561 387.077 34.5001 387.427 35.182C387.776 35.8639 388.256 36.4703 388.839 36.9668C389.423 37.4632 390.098 37.8398 390.827 38.0752C391.556 38.3106 392.325 38.4001 393.088 38.3385V38.3385Z" fill="#E5E4E7"/>
<path d="M416.915 21.707C419.259 21.707 421.158 19.8077 421.158 17.4647C421.158 15.1217 419.259 13.2224 416.915 13.2224C414.572 13.2224 412.672 15.1217 412.672 17.4647C412.672 19.8077 414.572 21.707 416.915 21.707Z" fill="#E5E4E7"/>
<path d="M437.771 6.36494C439.002 6.36494 440 5.36724 440 4.13651C440 2.90578 439.002 1.90808 437.771 1.90808C436.54 1.90808 435.542 2.90578 435.542 4.13651C435.542 5.36724 436.54 6.36494 437.771 6.36494Z" fill="#E5E4E7"/>
<path d="M360.776 175.085C360.025 176.223 358.952 177.112 357.695 177.64C356.438 178.168 355.052 178.312 353.714 178.053C352.375 177.794 351.143 177.144 350.174 176.185C349.204 175.225 348.541 174.001 348.269 172.665C347.996 171.329 348.125 169.942 348.64 168.68C349.156 167.417 350.034 166.336 351.164 165.573C352.294 164.81 353.625 164.398 354.988 164.391C356.352 164.384 357.687 164.782 358.825 165.533C360.349 166.543 361.41 168.115 361.776 169.906C362.142 171.697 361.782 173.559 360.776 175.085ZM350.156 168.069C349.52 169.032 349.184 170.161 349.19 171.315C349.196 172.469 349.544 173.595 350.19 174.551C350.836 175.507 351.751 176.25 352.819 176.686C353.887 177.122 355.061 177.231 356.191 177C357.322 176.769 358.359 176.208 359.17 175.388C359.982 174.568 360.532 173.526 360.752 172.393C360.971 171.261 360.849 170.089 360.402 169.025C359.955 167.961 359.203 167.054 358.24 166.418C356.949 165.567 355.372 165.263 353.857 165.573C352.341 165.882 351.011 166.78 350.156 168.069Z" fill="#E5E4E7"/>
<path d="M369.036 200.439C371.38 200.439 373.279 198.539 373.279 196.196C373.279 193.853 371.38 191.954 369.036 191.954C366.693 191.954 364.793 193.853 364.793 196.196C364.793 198.539 366.693 200.439 369.036 200.439Z" fill="#E5E4E7"/>
<path d="M380.872 220.16C382.103 220.16 383.101 219.162 383.101 217.932C383.101 216.701 382.103 215.703 380.872 215.703C379.641 215.703 378.643 216.701 378.643 217.932C378.643 219.162 379.641 220.16 380.872 220.16Z" fill="#E5E4E7"/>
<path d="M189.573 59.3043C188.966 58.0833 188.735 56.7098 188.909 55.3575C189.083 54.0052 189.654 52.7348 190.55 51.707C191.446 50.6791 192.627 49.94 193.943 49.5831C195.259 49.2262 196.652 49.2676 197.944 49.7019C199.237 50.1362 200.372 50.9441 201.205 52.0232C202.039 53.1024 202.533 54.4044 202.627 55.7647C202.72 57.1249 202.408 58.4823 201.729 59.6651C201.051 60.848 200.037 61.8032 198.816 62.4099C197.178 63.2215 195.285 63.3503 193.552 62.7681C191.82 62.1859 190.389 60.9402 189.573 59.3043ZM200.972 53.6406C200.459 52.6075 199.651 51.7498 198.649 51.176C197.648 50.6022 196.5 50.338 195.349 50.417C194.197 50.496 193.095 50.9144 192.182 51.6195C191.269 52.3247 190.585 53.2847 190.218 54.3783C189.85 55.4719 189.815 56.6499 190.117 57.7634C190.419 58.8768 191.045 59.8757 191.914 60.6337C192.784 61.3918 193.859 61.8749 195.004 62.022C196.148 62.1691 197.311 61.9736 198.344 61.4602C199.729 60.7704 200.783 59.5597 201.275 58.0938C201.768 56.6278 201.659 55.0263 200.972 53.6406Z" fill="#E5E4E7"/>
<path d="M167.165 60.0963C169.508 60.0963 171.408 58.1969 171.408 55.854C171.408 53.511 169.508 51.6117 167.165 51.6117C164.822 51.6117 162.922 53.511 162.922 55.854C162.922 58.1969 164.822 60.0963 167.165 60.0963Z" fill="#E5E4E7"/>
<path d="M142.422 57.4107C143.653 57.4107 144.651 56.413 144.651 55.1823C144.651 53.9516 143.653 52.9539 142.422 52.9539C141.191 52.9539 140.193 53.9516 140.193 55.1823C140.193 56.413 141.191 57.4107 142.422 57.4107Z" fill="#E5E4E7"/>
<path d="M109.924 224.143L109.303 222.559C107.588 218.19 103.488 214.831 99.1005 214.202C96.9114 213.915 94.6859 214.256 92.6829 215.185C90.6799 216.113 88.9818 217.591 87.7859 219.447C86.771 221.207 85.9697 223.082 85.399 225.033C85.2034 225.613 85.0063 226.033 84.6276 226.161C84.2012 226.314 83.777 226.051 83.0739 225.615C82.9171 225.518 82.736 225.468 82.5516 225.47C82.3671 225.472 82.1871 225.526 82.0324 225.627C81.8778 225.727 81.7548 225.869 81.678 226.037C81.6012 226.205 81.5737 226.391 81.5986 226.573L82.3359 231.836L81.7189 231.287C77.7046 227.714 76.8799 220.992 79.7798 216.727L73.1802 218.082L73.4775 217.515C76.2184 212.226 80.9426 208.237 86.617 206.42L80.2956 205.028L80.9345 204.634C86.5955 201.148 94.0638 201.246 99.9597 204.879C102.921 206.776 105.374 209.367 107.104 212.428C108.835 215.489 109.791 218.927 109.889 222.442L109.924 224.143Z" fill="#4A4950"/>
<path d="M109.924 224.143L109.303 222.559C107.588 218.19 103.488 214.831 99.1005 214.202C96.9114 213.915 94.6859 214.256 92.6829 215.185C90.6799 216.113 88.9818 217.591 87.7859 219.447C86.771 221.207 85.9697 223.082 85.399 225.033C85.2034 225.613 85.0063 226.033 84.6276 226.161C84.2012 226.314 83.777 226.051 83.0739 225.615C82.9171 225.518 82.736 225.468 82.5516 225.47C82.3671 225.472 82.1871 225.526 82.0324 225.627C81.8778 225.727 81.7548 225.869 81.678 226.037C81.6012 226.205 81.5737 226.391 81.5986 226.573L82.3359 231.836L81.7189 231.287C77.7046 227.714 76.8799 220.992 79.7798 216.727L73.1802 218.082L73.4775 217.515C76.2184 212.226 80.9426 208.237 86.617 206.42L80.2956 205.028L80.9345 204.634C86.5955 201.148 94.0638 201.246 99.9597 204.879C102.921 206.776 105.374 209.367 107.104 212.428C108.835 215.489 109.791 218.927 109.889 222.442L109.924 224.143Z" fill="black" fill-opacity="0.2"/>
<path d="M494.503 268.808C480.854 268.819 467.473 265.022 455.866 257.845L455.572 257.663L455.754 257.368L494.309 195.002H568V195.349C568 235.854 535.029 268.808 494.503 268.808Z" fill="#2C10EF"/>
<path d="M447.224 242.327L446.987 242.181C433.979 234.142 424.601 221.369 420.83 206.555C417.059 191.741 419.189 176.042 426.772 162.767L426.911 162.525L478.384 191.923L447.224 242.327Z" fill="white"/>
<path d="M568 185.163H494.071L510.008 113L510.346 113.074C526.693 116.685 541.316 125.764 551.8 138.809C562.283 151.854 567.998 168.084 568 184.816V185.163Z" fill="#2C10EF"/>
<path d="M482.295 173.797L432.204 145.189L432.339 144.954C438.411 134.351 447.713 125.964 458.888 121.013C470.063 116.063 482.528 114.809 494.466 117.433L494.731 117.491L482.295 173.797Z" fill="white"/>
</svg>
