<svg width="576" height="403" viewBox="0 0 576 403" fill="none" xmlns="http://www.w3.org/2000/svg">
<path d="M470.45 253H99.5498C97.0179 252.997 94.5905 251.958 92.8002 250.111C91.0099 248.264 90.0029 245.76 90 243.148V8C90.0021 6.0865 91.6884 3.85308 93 2.5C94.3116 1.14692 97.1413 0.00220138 98.9962 0H470.5C472.387 0.00221401 475.666 1.12353 477 2.5C478.334 3.87647 479.998 8.0534 480 10V243.148C479.997 245.76 478.99 248.264 477.2 250.111C475.409 251.958 472.982 252.997 470.45 253Z" fill="#D5CFFC"/>
<path d="M456.928 239.243H111.186C106.118 239.243 101.995 235.39 101.995 230.654V31.8896C101.995 28.3776 105.05 25.5202 108.806 25.5202H459.195C463.013 25.5202 466.119 28.4247 466.119 31.9945V230.654C466.119 235.39 461.996 239.243 456.928 239.243Z" fill="white"/>
<path d="M479.88 14.4119H89.7972V9.55963C89.8009 7.02436 90.8123 4.59406 92.6095 2.8019C94.4067 1.00975 96.8429 0.00209456 99.3838 0H470.293C472.834 0.00208235 475.27 1.00973 477.067 2.80189C478.865 4.59405 479.876 7.02435 479.88 9.55963V14.4119Z" fill="#8070F5"/>
<path d="M107.219 9.6946C108.589 9.6946 109.699 8.58685 109.699 7.22038C109.699 5.8539 108.589 4.74615 107.219 4.74615C105.85 4.74615 104.74 5.8539 104.74 7.22038C104.74 8.58685 105.85 9.6946 107.219 9.6946Z" fill="white"/>
<path d="M116.631 9.6946C118.001 9.6946 119.111 8.58685 119.111 7.22038C119.111 5.8539 118.001 4.74615 116.631 4.74615C115.262 4.74615 114.152 5.8539 114.152 7.22038C114.152 8.58685 115.262 9.6946 116.631 9.6946Z" fill="white"/>
<path d="M126.044 9.6946C127.413 9.6946 128.523 8.58685 128.523 7.22038C128.523 5.8539 127.413 4.74615 126.044 4.74615C124.674 4.74615 123.564 5.8539 123.564 7.22038C123.564 8.58685 124.674 9.6946 126.044 9.6946Z" fill="white"/>
<path d="M418.872 205.907H150.938C148.252 205.903 145.677 204.837 143.778 202.942C141.878 201.047 140.81 198.478 140.807 195.798V66.8982C140.809 64.8938 141.608 62.9722 143.029 61.5549C144.449 60.1375 146.375 59.3403 148.383 59.338H421.305C423.346 59.3403 425.303 60.1503 426.746 61.5902C428.189 63.0302 429.001 64.9825 429.003 67.0189V195.798C429 198.478 427.932 201.047 426.032 202.942C424.133 204.837 421.558 205.903 418.872 205.907ZM148.383 60.4932C146.682 60.4952 145.05 61.1706 143.847 62.3713C142.643 63.5721 141.967 65.2001 141.965 66.8982V195.798C141.967 198.172 142.914 200.447 144.596 202.126C146.278 203.804 148.559 204.749 150.938 204.751H418.872C421.251 204.749 423.532 203.804 425.214 202.126C426.896 200.447 427.842 198.172 427.845 195.798V67.0189C427.843 65.2888 427.154 63.6301 425.928 62.4067C424.702 61.1833 423.039 60.4952 421.305 60.4932H148.383Z" fill="#E5E4E7"/>
<path d="M160.2 195.798H409.61C412.067 195.798 414.422 194.824 416.159 193.091C417.896 191.358 418.872 189.007 418.872 186.556V78.8007C418.872 76.3496 417.896 73.9988 416.159 72.2656C414.422 70.5324 412.067 69.5587 409.61 69.5587H160.2C157.743 69.5587 155.388 70.5324 153.651 72.2656C151.913 73.9988 150.938 76.3496 150.938 78.8007V186.556C150.938 189.007 151.913 191.358 153.651 193.091C155.388 194.824 157.743 195.798 160.2 195.798Z" fill="white"/>
<path d="M188.519 100.909C191.396 100.909 193.729 98.5813 193.729 95.7101C193.729 92.839 191.396 90.5115 188.519 90.5115C185.642 90.5115 183.309 92.839 183.309 95.7101C183.309 98.5813 185.642 100.909 188.519 100.909Z" fill="#E5E4E7"/>
<path d="M188.519 120.548C191.396 120.548 193.729 118.221 193.729 115.35C193.729 112.478 191.396 110.151 188.519 110.151C185.642 110.151 183.309 112.478 183.309 115.35C183.309 118.221 185.642 120.548 188.519 120.548Z" fill="#E5E4E7"/>
<path d="M188.519 140.187C191.396 140.187 193.729 137.86 193.729 134.989C193.729 132.118 191.396 129.79 188.519 129.79C185.642 129.79 183.309 132.118 183.309 134.989C183.309 137.86 185.642 140.187 188.519 140.187Z" fill="#E5E4E7"/>
<path d="M188.519 159.827C191.396 159.827 193.729 157.499 193.729 154.628C193.729 151.757 191.396 149.43 188.519 149.43C185.642 149.43 183.309 151.757 183.309 154.628C183.309 157.499 185.642 159.827 188.519 159.827Z" fill="#E5E4E7"/>
<path d="M385.922 96.2878H214.569C214.416 96.2878 214.268 96.227 214.16 96.1187C214.051 96.0103 213.99 95.8634 213.99 95.7102C213.99 95.557 214.051 95.4101 214.16 95.3018C214.268 95.1934 214.416 95.1326 214.569 95.1326H385.922C386.076 95.1326 386.223 95.1934 386.331 95.3018C386.44 95.4101 386.501 95.557 386.501 95.7102C386.501 95.8634 386.44 96.0103 386.331 96.1187C386.223 96.227 386.076 96.2878 385.922 96.2878Z" fill="#E5E4E7"/>
<path d="M385.922 115.927H214.569C214.416 115.927 214.268 115.866 214.16 115.758C214.051 115.65 213.99 115.503 213.99 115.349C213.99 115.196 214.051 115.049 214.16 114.941C214.268 114.833 214.416 114.772 214.569 114.772H385.922C386.076 114.772 386.223 114.833 386.331 114.941C386.44 115.049 386.501 115.196 386.501 115.349C386.501 115.503 386.44 115.65 386.331 115.758C386.223 115.866 386.076 115.927 385.922 115.927Z" fill="#E5E4E7"/>
<path d="M385.922 135.567H214.569C214.416 135.567 214.268 135.506 214.16 135.397C214.051 135.289 213.99 135.142 213.99 134.989C213.99 134.836 214.051 134.689 214.16 134.58C214.268 134.472 214.416 134.411 214.569 134.411H385.922C386.076 134.411 386.223 134.472 386.331 134.58C386.44 134.689 386.501 134.836 386.501 134.989C386.501 135.142 386.44 135.289 386.331 135.397C386.223 135.506 386.076 135.567 385.922 135.567Z" fill="#E5E4E7"/>
<path d="M385.922 155.206H214.569C214.416 155.206 214.268 155.145 214.16 155.037C214.051 154.928 213.99 154.781 213.99 154.628C213.99 154.475 214.051 154.328 214.16 154.22C214.268 154.111 214.416 154.051 214.569 154.051H385.922C386.076 154.051 386.223 154.111 386.331 154.22C386.44 154.328 386.501 154.475 386.501 154.628C386.501 154.781 386.44 154.928 386.331 155.037C386.223 155.145 386.076 155.206 385.922 155.206Z" fill="#E5E4E7"/>
<path d="M246.987 174.845H230.199C229.432 174.844 228.696 174.54 228.154 173.998C227.611 173.457 227.306 172.723 227.305 171.957V156.361C227.306 155.595 227.611 154.861 228.154 154.32C228.696 153.778 229.432 153.474 230.199 153.473H246.987C247.755 153.474 248.49 153.778 249.033 154.32C249.576 154.861 249.881 155.595 249.882 156.361V171.957C249.881 172.723 249.576 173.457 249.033 173.998C248.49 174.54 247.755 174.844 246.987 174.845Z" fill="#2C10EF"/>
<path d="M284.616 174.845H267.828C267.06 174.844 266.324 174.54 265.782 173.998C265.239 173.457 264.934 172.723 264.933 171.957V136.722C264.934 135.956 265.239 135.222 265.782 134.681C266.324 134.139 267.06 133.834 267.828 133.834H284.616C285.383 133.834 286.119 134.139 286.661 134.681C287.204 135.222 287.509 135.956 287.51 136.722V171.957C287.509 172.723 287.204 173.457 286.661 173.998C286.119 174.54 285.383 174.844 284.616 174.845Z" fill="#2C10EF"/>
<path d="M322.823 174.845H306.035C305.267 174.844 304.531 174.54 303.989 173.998C303.446 173.457 303.141 172.723 303.14 171.957V117.082C303.141 116.317 303.446 115.583 303.989 115.041C304.531 114.5 305.267 114.195 306.035 114.194H322.823C323.59 114.195 324.326 114.5 324.868 115.041C325.411 115.583 325.716 116.317 325.717 117.082V171.957C325.716 172.723 325.411 173.457 324.868 173.998C324.326 174.54 323.59 174.844 322.823 174.845Z" fill="#2C10EF"/>
<path d="M362.187 174.845H345.399C344.632 174.844 343.896 174.54 343.354 173.998C342.811 173.457 342.506 172.723 342.505 171.957V98.0207C342.506 97.255 342.811 96.5209 343.354 95.9795C343.896 95.438 344.632 95.1334 345.399 95.1326H362.187C362.955 95.1334 363.69 95.438 364.233 95.9795C364.776 96.5209 365.081 97.255 365.082 98.0207V171.957C365.081 172.723 364.776 173.457 364.233 173.998C363.69 174.54 362.955 174.844 362.187 174.845Z" fill="#2C10EF"/>
<path d="M385.922 174.845H214.569C214.416 174.845 214.268 174.784 214.16 174.676C214.051 174.568 213.99 174.421 213.99 174.268C213.99 174.114 214.051 173.967 214.16 173.859C214.268 173.751 214.416 173.69 214.569 173.69H385.922C386.076 173.69 386.223 173.751 386.331 173.859C386.44 173.967 386.501 174.114 386.501 174.268C386.501 174.421 386.44 174.568 386.331 174.676C386.223 174.784 386.076 174.845 385.922 174.845Z" fill="#7B7986"/>
<path d="M461.206 282.6C461.675 281.892 462.294 281.294 463.02 280.851C463.745 280.407 464.559 280.127 465.405 280.031C466.25 279.935 467.107 280.025 467.914 280.295C468.721 280.565 469.458 281.008 470.075 281.593L488.458 272.127L487.315 282.792L470.033 290.147C468.979 291.115 467.606 291.664 466.173 291.69C464.741 291.715 463.348 291.216 462.26 290.286C461.172 289.355 460.464 288.059 460.27 286.643C460.075 285.226 460.409 283.788 461.206 282.6Z" fill="#FFB8B8"/>
<path d="M477.023 286.578C476.606 286.252 476.298 285.806 476.141 285.301L474.679 280.588C474.522 280.077 474.526 279.53 474.69 279.022C474.854 278.514 475.171 278.068 475.598 277.745L490.497 266.516L506.634 236.645C507.31 235.777 508.15 235.049 509.108 234.505C510.065 233.96 511.121 233.61 512.215 233.472C513.308 233.335 514.418 233.414 515.481 233.705C516.544 233.995 517.539 234.492 518.409 235.166C519.28 235.841 520.009 236.68 520.554 237.635C521.1 238.591 521.451 239.644 521.589 240.735C521.726 241.826 521.647 242.934 521.356 243.994C521.064 245.055 520.566 246.048 519.89 246.916L510.71 266.25C507.925 272.118 503.098 276.777 497.127 279.36L479.666 286.917C479.331 287.062 478.968 287.135 478.602 287.131C478.236 287.127 477.875 287.046 477.542 286.894C477.357 286.81 477.183 286.703 477.023 286.578Z" fill="#7B7986"/>
<path d="M520.296 224.179C528.149 224.179 534.514 217.827 534.514 209.992C534.514 202.156 528.149 195.804 520.296 195.804C512.443 195.804 506.078 202.156 506.078 209.992C506.078 217.827 512.443 224.179 520.296 224.179Z" fill="#FFB8B8"/>
<path d="M514.528 396.101L507.432 396.1L504.056 368.785L514.531 368.786L514.528 396.101Z" fill="#FFB8B8"/>
<path d="M502.362 394.077H516.049V402.676H493.744C493.744 401.546 493.967 400.428 494.4 399.385C494.833 398.342 495.468 397.394 496.268 396.595C497.068 395.797 498.018 395.163 499.064 394.731C500.11 394.299 501.23 394.077 502.362 394.077Z" fill="#4A4950"/>
<path d="M502.362 394.077H516.049V402.676H493.744C493.744 401.546 493.967 400.428 494.4 399.385C494.833 398.342 495.468 397.394 496.268 396.595C497.068 395.797 498.018 395.163 499.064 394.731C500.11 394.299 501.23 394.077 502.362 394.077Z" fill="black" fill-opacity="0.2"/>
<path d="M537.684 396.102L530.587 396.101L527.212 368.786L537.687 368.787L537.684 396.102Z" fill="#FFB8B8"/>
<path d="M525.518 394.078H539.205V402.677H516.9C516.9 401.547 517.123 400.429 517.556 399.386C517.989 398.343 518.624 397.395 519.424 396.596C520.224 395.798 521.174 395.164 522.22 394.732C523.265 394.3 524.386 394.078 525.518 394.078Z" fill="#4A4950"/>
<path d="M525.518 394.078H539.205V402.677H516.9C516.9 401.547 517.123 400.429 517.556 399.386C517.989 398.343 518.624 397.395 519.424 396.596C520.224 395.798 521.174 395.164 522.22 394.732C523.265 394.3 524.386 394.078 525.518 394.078Z" fill="black" fill-opacity="0.2"/>
<path d="M538.203 389.171L529.886 389.17C529.313 389.17 528.757 388.981 528.302 388.633C527.848 388.286 527.521 387.799 527.371 387.247L515.4 342.943C515.381 342.874 515.337 342.814 515.277 342.775C515.217 342.736 515.144 342.721 515.073 342.733C515.003 342.744 514.939 342.782 514.894 342.837C514.849 342.893 514.827 342.964 514.831 343.035L517.249 385.053C517.271 385.425 517.212 385.796 517.077 386.143C516.942 386.49 516.734 386.804 516.467 387.064C516.2 387.323 515.88 387.523 515.529 387.648C515.178 387.774 514.804 387.823 514.432 387.792L505.084 387.014C504.485 386.963 503.922 386.708 503.49 386.29C503.059 385.873 502.784 385.32 502.713 384.725L494.197 296.495L497.492 298.468L528.364 293.238L540.785 386.228C540.834 386.595 540.804 386.968 540.697 387.323C540.589 387.677 540.407 388.005 540.163 388.284C539.918 388.562 539.617 388.786 539.279 388.939C538.941 389.092 538.574 389.171 538.203 389.171H538.203Z" fill="#4A4950"/>
<path d="M538.203 389.171L529.886 389.17C529.313 389.17 528.757 388.981 528.302 388.633C527.848 388.286 527.521 387.799 527.371 387.247L515.4 342.943C515.381 342.874 515.337 342.814 515.277 342.775C515.217 342.736 515.144 342.721 515.073 342.733C515.003 342.744 514.939 342.782 514.894 342.837C514.849 342.893 514.827 342.964 514.831 343.035L517.249 385.053C517.271 385.425 517.212 385.796 517.077 386.143C516.942 386.49 516.734 386.804 516.467 387.064C516.2 387.323 515.88 387.523 515.529 387.648C515.178 387.774 514.804 387.823 514.432 387.792L505.084 387.014C504.485 386.963 503.922 386.708 503.49 386.29C503.059 385.873 502.784 385.32 502.713 384.725L494.197 296.495L497.492 298.468L528.364 293.238L540.785 386.228C540.834 386.595 540.804 386.968 540.697 387.323C540.589 387.677 540.407 388.005 540.163 388.284C539.918 388.562 539.617 388.786 539.279 388.939C538.941 389.092 538.574 389.171 538.203 389.171H538.203Z" fill="black" fill-opacity="0.2"/>
<path d="M504.522 305.807C501.116 305.78 497.78 304.843 494.859 303.094C494.409 302.828 494.051 302.432 493.83 301.959C493.609 301.486 493.537 300.958 493.623 300.443C494.708 293.808 500.386 259.774 505.553 241.219C507.657 233.662 512.309 229.592 519.381 229.122C529.724 228.445 538.918 236.52 539.876 247.144C541.564 265.887 534.704 292.517 531.676 303.096C531.559 303.505 531.343 303.878 531.047 304.184C530.751 304.49 530.385 304.719 529.98 304.85C529.574 304.982 529.143 305.012 528.724 304.938C528.304 304.865 527.909 304.69 527.573 304.428L521.401 299.638C521.022 299.348 520.552 299.2 520.074 299.22C519.597 299.24 519.141 299.426 518.787 299.746C513.585 304.376 508.643 305.808 504.522 305.807Z" fill="#7B7986"/>
<g opacity="0.2">
<path d="M524.934 256.315L530.143 278.266L522.617 296.749L527.828 278.844L524.934 256.315Z" fill="#4A4950"/>
<path d="M524.934 256.315L530.143 278.266L522.617 296.749L527.828 278.844L524.934 256.315Z" fill="black" fill-opacity="0.2"/>
</g>
<path d="M528.409 221.658C529.674 221.682 530.931 221.455 532.107 220.991C532.625 220.792 533.162 220.628 533.679 220.429C538.241 218.67 541.247 213.822 541.355 208.942C541.463 204.063 538.931 199.327 535.17 196.205C531.41 193.084 526.539 191.482 521.662 191.111C516.409 190.711 510.493 192.04 507.557 196.406C506.776 197.568 506.229 198.978 506.692 200.381C506.831 200.804 507.078 201.184 507.41 201.482C508.721 202.646 510.028 201.771 511.365 201.694C513.202 201.587 514.852 203.071 515.444 204.809C516.037 206.547 515.776 208.461 515.297 210.233C514.933 211.3 514.703 212.408 514.613 213.532C514.574 214.095 514.68 214.659 514.921 215.17C515.162 215.681 515.53 216.122 515.989 216.452C517.137 217.144 518.645 216.743 519.793 216.052C520.942 215.361 521.934 214.4 523.175 213.891C524.416 213.383 526.083 213.496 526.805 214.624C527.034 215.034 527.189 215.481 527.263 215.946C527.911 218.888 527.762 218.715 528.409 221.658Z" fill="#4A4950"/>
<path d="M528.409 221.658C529.674 221.682 530.931 221.455 532.107 220.991C532.625 220.792 533.162 220.628 533.679 220.429C538.241 218.67 541.247 213.822 541.355 208.942C541.463 204.063 538.931 199.327 535.17 196.205C531.41 193.084 526.539 191.482 521.662 191.111C516.409 190.711 510.493 192.04 507.557 196.406C506.776 197.568 506.229 198.978 506.692 200.381C506.831 200.804 507.078 201.184 507.41 201.482C508.721 202.646 510.028 201.771 511.365 201.694C513.202 201.587 514.852 203.071 515.444 204.809C516.037 206.547 515.776 208.461 515.297 210.233C514.933 211.3 514.703 212.408 514.613 213.532C514.574 214.095 514.68 214.659 514.921 215.17C515.162 215.681 515.53 216.122 515.989 216.452C517.137 217.144 518.645 216.743 519.793 216.052C520.942 215.361 521.934 214.4 523.175 213.891C524.416 213.383 526.083 213.496 526.805 214.624C527.034 215.034 527.189 215.481 527.263 215.946C527.911 218.888 527.762 218.715 528.409 221.658Z" fill="black" fill-opacity="0.2"/>
<path d="M506.371 376.285L417.34 345.347C415.812 344.814 414.559 343.698 413.854 342.244C413.15 340.791 413.052 339.117 413.583 337.592L436.719 271.304C437.11 270.187 437.929 269.271 438.996 268.756C440.064 268.241 441.292 268.17 442.413 268.558L534.454 300.542C535.593 300.939 536.527 301.77 537.052 302.854C537.577 303.937 537.649 305.184 537.254 306.321L514.143 372.536C513.609 374.061 512.491 375.311 511.034 376.014C509.577 376.717 507.9 376.814 506.371 376.285Z" fill="#E5E4E7"/>
<path d="M424.937 341.537L502.789 368.591C504.272 369.106 505.898 369.012 507.312 368.331C508.725 367.649 509.809 366.435 510.326 364.956L529.008 311.429C529.524 309.95 529.43 308.326 528.747 306.916C528.064 305.506 526.847 304.424 525.365 303.909L447.513 276.855C446.03 276.34 444.403 276.434 442.99 277.116C441.576 277.797 440.492 279.011 439.976 280.491L421.294 334.017C421.038 334.75 420.93 335.525 420.975 336.3C421.019 337.074 421.216 337.832 421.555 338.53C421.893 339.229 422.366 339.854 422.946 340.37C423.527 340.886 424.203 341.282 424.937 341.537Z" fill="white"/>
<path d="M444.487 303.93L440.631 302.59C440.422 302.517 440.251 302.365 440.154 302.166C440.058 301.967 440.045 301.738 440.117 301.529L441.46 297.682C441.533 297.474 441.686 297.302 441.885 297.206C442.085 297.11 442.314 297.097 442.523 297.169L446.379 298.509C446.588 298.582 446.759 298.735 446.856 298.934C446.952 299.132 446.965 299.361 446.893 299.57L445.55 303.417C445.477 303.626 445.324 303.797 445.125 303.893C444.925 303.989 444.696 304.003 444.487 303.93Z" fill="#2C10EF"/>
<path d="M441.008 313.898L437.152 312.558C436.943 312.485 436.772 312.332 436.675 312.133C436.579 311.935 436.566 311.706 436.638 311.497L437.981 307.65C438.054 307.441 438.207 307.27 438.406 307.174C438.606 307.078 438.835 307.064 439.044 307.137L442.9 308.477C443.109 308.55 443.28 308.702 443.377 308.901C443.473 309.1 443.486 309.329 443.414 309.538L442.071 313.385C441.998 313.593 441.845 313.765 441.646 313.861C441.446 313.957 441.217 313.97 441.008 313.898Z" fill="#7B7986"/>
<path d="M437.529 323.865L433.673 322.525C433.464 322.453 433.293 322.3 433.196 322.101C433.1 321.902 433.087 321.673 433.159 321.464L434.502 317.617C434.575 317.409 434.728 317.238 434.927 317.142C435.127 317.045 435.356 317.032 435.565 317.104L439.421 318.444C439.63 318.517 439.801 318.67 439.898 318.869C439.994 319.068 440.007 319.297 439.935 319.505L438.592 323.352C438.519 323.561 438.366 323.732 438.167 323.828C437.967 323.924 437.738 323.938 437.529 323.865Z" fill="#E5E4E7"/>
<path d="M470.395 310.776L451.818 304.321C451.714 304.285 451.618 304.229 451.536 304.156C451.454 304.084 451.387 303.995 451.339 303.897C451.291 303.798 451.263 303.691 451.257 303.582C451.25 303.472 451.266 303.363 451.302 303.259C451.338 303.156 451.394 303.06 451.467 302.978C451.54 302.897 451.629 302.83 451.728 302.782C451.827 302.735 451.934 302.707 452.044 302.701C452.154 302.695 452.263 302.711 452.367 302.747L470.944 309.202C471.048 309.238 471.144 309.294 471.226 309.367C471.308 309.44 471.375 309.528 471.423 309.626C471.471 309.725 471.499 309.832 471.505 309.941C471.512 310.051 471.496 310.161 471.46 310.264C471.424 310.368 471.368 310.463 471.295 310.545C471.221 310.627 471.133 310.693 471.034 310.741C470.935 310.788 470.828 310.816 470.718 310.822C470.608 310.828 470.498 310.813 470.395 310.776Z" fill="#E5E4E7"/>
<path d="M466.916 320.744L448.339 314.288C448.13 314.216 447.958 314.063 447.862 313.864C447.765 313.665 447.752 313.436 447.825 313.227C447.898 313.019 448.051 312.847 448.25 312.751C448.45 312.655 448.679 312.642 448.888 312.715L467.465 319.17C467.569 319.206 467.665 319.262 467.747 319.334C467.829 319.407 467.896 319.495 467.944 319.594C467.992 319.693 468.02 319.8 468.026 319.909C468.032 320.019 468.017 320.128 467.981 320.232C467.945 320.335 467.888 320.43 467.815 320.512C467.742 320.594 467.654 320.661 467.555 320.708C467.456 320.756 467.349 320.783 467.239 320.789C467.129 320.796 467.019 320.78 466.916 320.744Z" fill="#E5E4E7"/>
<path d="M463.437 330.712L444.86 324.256C444.651 324.183 444.479 324.031 444.383 323.832C444.286 323.633 444.273 323.404 444.346 323.195C444.419 322.986 444.572 322.815 444.771 322.719C444.97 322.623 445.2 322.61 445.409 322.682L463.986 329.138C464.195 329.21 464.367 329.363 464.463 329.562C464.56 329.761 464.573 329.99 464.5 330.199C464.427 330.407 464.274 330.579 464.075 330.675C463.876 330.771 463.646 330.784 463.437 330.712Z" fill="#E5E4E7"/>
<path d="M512.874 336.112C513.009 335.788 513.137 335.459 513.254 335.123C514.781 330.748 514.503 325.948 512.483 321.777C510.462 317.606 506.864 314.407 502.48 312.884L496.374 330.378L512.874 336.112Z" fill="#2C10EF"/>
<path d="M494.598 331.443L500.704 313.948C497.477 312.826 493.992 312.672 490.678 313.503C487.364 314.334 484.367 316.115 482.055 318.626C479.743 321.137 478.219 324.268 477.669 327.633C477.119 330.998 477.569 334.45 478.962 337.564C480.355 340.677 482.631 343.315 485.509 345.154C488.387 346.992 491.741 347.949 495.158 347.908C498.574 347.867 501.904 346.829 504.737 344.922C507.569 343.015 509.781 340.322 511.098 337.176L494.598 331.443Z" fill="#7B7986"/>
<path d="M516.458 306.347C516.389 305.5 516.506 304.649 516.803 303.853C517.099 303.057 517.566 302.335 518.172 301.739C518.778 301.143 519.508 300.686 520.31 300.402C521.112 300.118 521.966 300.012 522.814 300.093L531.424 281.324L537.12 290.421L528.071 306.849C527.84 308.26 527.099 309.538 525.988 310.44C524.876 311.342 523.472 311.807 522.04 311.745C520.609 311.683 519.25 311.099 518.221 310.104C517.192 309.109 516.565 307.772 516.458 306.347Z" fill="#FFB8B8"/>
<path d="M531.364 299.737C530.834 299.737 530.316 299.576 529.88 299.275L525.814 296.466C525.375 296.161 525.04 295.729 524.855 295.228C524.67 294.727 524.643 294.181 524.779 293.664L529.558 275.653L523.781 242.213C523.775 241.112 523.985 240.021 524.402 239.002C524.818 237.983 525.431 237.056 526.207 236.274C526.982 235.491 527.905 234.869 528.922 234.443C529.939 234.016 531.03 233.794 532.132 233.789C533.235 233.783 534.328 233.995 535.349 234.412C536.37 234.828 537.299 235.441 538.082 236.216C538.865 236.991 539.487 237.912 539.913 238.927C540.34 239.942 540.561 241.031 540.565 242.132L545.298 262.998C546.736 269.33 545.819 275.969 542.719 281.677L533.653 298.376C533.479 298.697 533.239 298.977 532.948 299.2C532.658 299.422 532.324 299.581 531.968 299.666C531.77 299.713 531.567 299.737 531.364 299.737Z" fill="#7B7986"/>
<path d="M575.421 403H465.431C465.278 403 465.13 402.939 465.022 402.831C464.913 402.722 464.852 402.576 464.852 402.422C464.852 402.269 464.913 402.122 465.022 402.014C465.13 401.906 465.278 401.845 465.431 401.845H575.421C575.575 401.845 575.722 401.906 575.83 402.014C575.939 402.122 576 402.269 576 402.422C576 402.576 575.939 402.722 575.83 402.831C575.722 402.939 575.575 403 575.421 403Z" fill="#E5E4E7"/>
<path d="M283.971 395.813L291.069 395.813L294.445 368.498H283.97L283.971 395.813Z" fill="#A0616A"/>
<path d="M282.161 393.501L296.138 393.501H296.139C297.308 393.501 298.466 393.73 299.547 394.177C300.628 394.624 301.61 395.278 302.437 396.104C303.264 396.929 303.92 397.909 304.368 398.987C304.815 400.065 305.046 401.221 305.046 402.388V402.677L282.162 402.678L282.161 393.501Z" fill="#4A4950"/>
<path d="M282.161 393.501L296.138 393.501H296.139C297.308 393.501 298.466 393.73 299.547 394.177C300.628 394.624 301.61 395.278 302.437 396.104C303.264 396.929 303.92 397.909 304.368 398.987C304.815 400.065 305.046 401.221 305.046 402.388V402.677L282.162 402.678L282.161 393.501Z" fill="black" fill-opacity="0.2"/>
<path d="M255.606 395.813L262.703 395.813L266.079 368.498H255.604L255.606 395.813Z" fill="#A0616A"/>
<path d="M253.795 393.501L267.772 393.501H267.773C268.942 393.501 270.101 393.73 271.181 394.177C272.262 394.624 273.244 395.278 274.071 396.104C274.898 396.929 275.554 397.909 276.002 398.987C276.449 400.065 276.68 401.221 276.68 402.388V402.677L253.796 402.678L253.795 393.501Z" fill="#4A4950"/>
<path d="M253.795 393.501L267.772 393.501H267.773C268.942 393.501 270.101 393.73 271.181 394.177C272.262 394.624 273.244 395.278 274.071 396.104C274.898 396.929 275.554 397.909 276.002 398.987C276.449 400.065 276.68 401.221 276.68 402.388V402.677L253.796 402.678L253.795 393.501Z" fill="black" fill-opacity="0.2"/>
<path d="M285.388 206.709C293.241 206.709 299.606 200.357 299.606 192.522C299.606 184.686 293.241 178.334 285.388 178.334C277.536 178.334 271.17 184.686 271.17 192.522C271.17 200.357 277.536 206.709 285.388 206.709Z" fill="#A0616A"/>
<path d="M294.949 389.918H281.779C281.434 389.918 281.093 389.85 280.775 389.717C280.457 389.584 280.168 389.39 279.926 389.145C279.684 388.901 279.493 388.61 279.364 388.291C279.234 387.972 279.17 387.631 279.174 387.287L279.94 324.885C279.942 324.663 279.86 324.449 279.709 324.286C279.559 324.123 279.351 324.024 279.129 324.01C278.908 323.995 278.689 324.065 278.518 324.207C278.347 324.348 278.236 324.549 278.209 324.769L270.544 387.633C270.467 388.263 270.161 388.843 269.685 389.264C269.209 389.685 268.595 389.917 267.958 389.918H254.662C254.302 389.918 253.947 389.844 253.618 389.7C253.289 389.557 252.993 389.347 252.749 389.084C252.505 388.82 252.319 388.51 252.201 388.171C252.083 387.833 252.037 387.473 252.065 387.116L260.845 275.013L261.084 274.987L303.128 270.456L297.552 387.442C297.521 388.11 297.233 388.739 296.748 389.201C296.263 389.662 295.619 389.919 294.949 389.918Z" fill="#4A4950"/>
<path d="M294.949 389.918H281.779C281.434 389.918 281.093 389.85 280.775 389.717C280.457 389.584 280.168 389.39 279.926 389.145C279.684 388.901 279.493 388.61 279.364 388.291C279.234 387.972 279.17 387.631 279.174 387.287L279.94 324.885C279.942 324.663 279.86 324.449 279.709 324.286C279.559 324.123 279.351 324.024 279.129 324.01C278.908 323.995 278.689 324.065 278.518 324.207C278.347 324.348 278.236 324.549 278.209 324.769L270.544 387.633C270.467 388.263 270.161 388.843 269.685 389.264C269.209 389.685 268.595 389.917 267.958 389.918H254.662C254.302 389.918 253.947 389.844 253.618 389.7C253.289 389.557 252.993 389.347 252.749 389.084C252.505 388.82 252.319 388.51 252.201 388.171C252.083 387.833 252.037 387.473 252.065 387.116L260.845 275.013L261.084 274.987L303.128 270.456L297.552 387.442C297.521 388.11 297.233 388.739 296.748 389.201C296.263 389.662 295.619 389.919 294.949 389.918Z" fill="black" fill-opacity="0.2"/>
<path d="M261.357 281.895C260.681 281.893 260.033 281.63 259.548 281.16C259.064 280.69 258.782 280.051 258.761 279.377C258.531 272.289 258.138 247.762 262.71 229.756C263.958 224.837 266.759 220.449 270.699 217.241C274.639 214.033 279.508 212.175 284.588 211.942C289.588 211.67 294.547 212.975 298.762 215.674C302.976 218.372 306.232 222.326 308.067 226.974C315.752 246.442 323.013 270.438 313.961 274.202C302.097 279.135 270.82 281.333 261.517 281.89C261.463 281.893 261.41 281.895 261.357 281.895Z" fill="#7B7986"/>
<path d="M315.698 178.183C315.922 178.412 316.163 178.623 316.419 178.814L314.927 207.422L308.719 210.593L312.291 220.568L323.828 216.019C324.76 215.651 325.548 214.992 326.072 214.14C326.597 213.288 326.83 212.289 326.738 211.293L323.715 178.843C324.704 178.106 325.445 177.087 325.839 175.92C326.234 174.754 326.263 173.495 325.922 172.311C325.582 171.127 324.889 170.075 323.935 169.294C322.981 168.514 321.811 168.041 320.581 167.94C319.351 167.839 318.12 168.113 317.05 168.728C315.981 169.342 315.124 170.266 314.594 171.378C314.064 172.49 313.885 173.737 314.083 174.952C314.28 176.168 314.843 177.295 315.698 178.183Z" fill="#A0616A"/>
<path d="M315.045 208.487L319.412 220.87C319.536 221.223 319.583 221.598 319.549 221.97C319.515 222.342 319.401 222.702 319.215 223.026C319.029 223.35 318.775 223.63 318.47 223.847C318.166 224.065 317.818 224.214 317.45 224.285L304.572 226.773C302.762 227.398 300.777 227.28 299.054 226.447C297.33 225.613 296.008 224.131 295.378 222.327C294.747 220.522 294.86 218.541 295.69 216.819C296.521 215.097 298.002 213.774 299.81 213.14L311.372 207.05C311.703 206.876 312.068 206.775 312.442 206.754C312.816 206.733 313.19 206.793 313.538 206.929C313.887 207.066 314.202 207.275 314.462 207.544C314.722 207.813 314.921 208.134 315.045 208.487V208.487Z" fill="#7B7986"/>
<path d="M254.112 178.183C253.888 178.412 253.647 178.623 253.39 178.814L254.883 207.422L261.091 210.593L257.519 220.568L245.982 216.019C245.05 215.651 244.262 214.992 243.738 214.14C243.213 213.288 242.98 212.289 243.072 211.293L246.095 178.843C245.106 178.106 244.365 177.087 243.971 175.92C243.576 174.754 243.547 173.495 243.888 172.311C244.228 171.127 244.921 170.075 245.875 169.294C246.829 168.514 247.999 168.041 249.229 167.94C250.459 167.839 251.69 168.113 252.76 168.728C253.829 169.342 254.686 170.266 255.216 171.378C255.746 172.49 255.925 173.737 255.727 174.952C255.53 176.168 254.966 177.295 254.112 178.183H254.112Z" fill="#A0616A"/>
<path d="M256.272 206.929C256.62 206.793 256.994 206.733 257.368 206.754C257.742 206.775 258.107 206.876 258.438 207.05L270 213.14C271.807 213.774 273.289 215.097 274.12 216.819C274.95 218.541 275.063 220.522 274.432 222.327C273.802 224.131 272.48 225.613 270.756 226.447C269.032 227.28 267.048 227.398 265.237 226.773L252.36 224.285C251.992 224.214 251.644 224.065 251.34 223.847C251.035 223.63 250.781 223.35 250.595 223.026C250.409 222.702 250.295 222.341 250.261 221.969C250.227 221.597 250.274 221.223 250.398 220.87L254.765 208.486C254.889 208.134 255.088 207.812 255.348 207.544C255.608 207.275 255.923 207.065 256.272 206.929Z" fill="#7B7986"/>
<path d="M290.91 194.94C290.836 193.13 291.291 191.338 292.22 189.782C293.15 188.226 294.513 186.974 296.144 186.179C300.466 183.952 303.181 179.204 301.991 174.867C300.468 169.317 292.898 165.717 286.763 167.627C285.103 168.215 283.502 168.958 281.981 169.845L277.973 171.988C276.261 172.844 274.611 173.816 273.033 174.898C270.67 176.636 268.818 178.975 267.67 181.67C266.523 184.366 266.122 187.32 266.509 190.223C267.298 195.865 271.001 201.04 276.071 204.583C278.009 206.029 280.249 207.022 282.623 207.489C285.053 207.889 287.758 207.435 289.535 205.927C292.311 203.571 292.024 199.625 291.126 196.329C291.008 195.874 290.935 195.409 290.91 194.94Z" fill="#4A4950"/>
<path d="M290.91 194.94C290.836 193.13 291.291 191.338 292.22 189.782C293.15 188.226 294.513 186.974 296.144 186.179C300.466 183.952 303.181 179.204 301.991 174.867C300.468 169.317 292.898 165.717 286.763 167.627C285.103 168.215 283.502 168.958 281.981 169.845L277.973 171.988C276.261 172.844 274.611 173.816 273.033 174.898C270.67 176.636 268.818 178.975 267.67 181.67C266.523 184.366 266.122 187.32 266.509 190.223C267.298 195.865 271.001 201.04 276.071 204.583C278.009 206.029 280.249 207.022 282.623 207.489C285.053 207.889 287.758 207.435 289.535 205.927C292.311 203.571 292.024 199.625 291.126 196.329C291.008 195.874 290.935 195.409 290.91 194.94Z" fill="black" fill-opacity="0.2"/>
<path d="M339.232 403H229.242C229.089 403 228.941 402.939 228.833 402.831C228.724 402.722 228.663 402.576 228.663 402.422C228.663 402.269 228.724 402.122 228.833 402.014C228.941 401.906 229.089 401.845 229.242 401.845H339.232C339.386 401.845 339.533 401.906 339.642 402.014C339.75 402.122 339.811 402.269 339.811 402.422C339.811 402.576 339.75 402.722 339.642 402.831C339.533 402.939 339.386 403 339.232 403Z" fill="#E5E4E7"/>
<path d="M159.723 297.625L68.9652 334.776C67.4065 335.412 65.6587 335.405 64.1051 334.757C62.5515 334.109 61.3191 332.872 60.6782 331.318L32.8959 263.746C32.429 262.606 32.434 261.329 32.91 260.193C33.3859 259.057 34.2939 258.156 35.4347 257.688L129.26 219.28C130.422 218.806 131.725 218.811 132.882 219.295C134.04 219.778 134.959 220.699 135.436 221.858L163.188 289.356C163.826 290.911 163.819 292.655 163.169 294.205C162.519 295.756 161.28 296.985 159.723 297.625Z" fill="#E5E4E7"/>
<path d="M72.2527 326.58L151.614 294.094C153.125 293.475 154.328 292.283 154.958 290.779C155.588 289.276 155.594 287.584 154.974 286.076L132.54 231.511C132.233 230.765 131.782 230.086 131.212 229.513C130.642 228.94 129.965 228.485 129.218 228.174C128.472 227.863 127.672 227.701 126.863 227.698C126.054 227.696 125.253 227.852 124.504 228.158L45.1434 260.644C44.3951 260.951 43.7146 261.401 43.1407 261.97C42.5668 262.539 42.1109 263.215 41.7988 263.959C41.4868 264.704 41.3247 265.502 41.322 266.309C41.3193 267.116 41.4758 267.916 41.7828 268.663L64.2168 323.227C64.5238 323.974 64.9752 324.653 65.5451 325.225C66.1151 325.798 66.7925 326.253 67.5387 326.564C68.2849 326.876 69.0853 327.037 69.8941 327.04C70.7029 327.043 71.5044 326.887 72.2527 326.58Z" fill="white"/>
<path d="M132.102 246.392L130.935 246.869L131.015 247.063L132.181 246.586L132.102 246.392Z" fill="#E5E4E7"/>
<path d="M128.658 248.028L126.301 248.993L126.221 248.799L128.578 247.834L128.658 248.028ZM123.943 249.958L121.586 250.923L121.507 250.729L123.864 249.764L123.943 249.958ZM119.229 251.888L116.872 252.853L116.792 252.659L119.149 251.694L119.229 251.888ZM114.515 253.818L112.158 254.782L112.078 254.588L114.435 253.624L114.515 253.818ZM109.801 255.747L107.444 256.712L107.364 256.518L109.721 255.553L109.801 255.747ZM105.086 257.677L102.729 258.642L102.65 258.448L105.007 257.483L105.086 257.677ZM100.372 259.607L98.0151 260.572L97.9354 260.378L100.292 259.413L100.372 259.607ZM95.658 261.537L93.3009 262.502L93.2211 262.308L95.5782 261.343L95.658 261.537ZM90.9438 263.466L88.5867 264.431L88.5069 264.237L90.864 263.272L90.9438 263.466ZM86.2295 265.396L83.8724 266.361L83.7927 266.167L86.1498 265.202L86.2295 265.396ZM81.5153 267.326L79.1582 268.291L79.0784 268.097L81.4355 267.132L81.5153 267.326ZM76.8011 269.256L74.444 270.221L74.3642 270.027L76.7213 269.062L76.8011 269.256ZM72.0868 271.186L69.7297 272.15L69.6499 271.956L72.007 270.991L72.0868 271.186ZM67.3726 273.115L65.0154 274.08L64.9357 273.886L67.2928 272.921L67.3726 273.115ZM62.6584 275.045L60.3013 276.01L60.2215 275.816L62.5786 274.851L62.6584 275.045ZM57.9441 276.975L55.587 277.94L55.5072 277.746L57.8643 276.781L57.9441 276.975Z" fill="#E5E4E7"/>
<path d="M53.1501 278.711L51.9833 279.188L52.0631 279.382L53.2299 278.905L53.1501 278.711Z" fill="#E5E4E7"/>
<path d="M101.212 280.119L100.045 280.597L100.125 280.791L101.292 280.313L101.212 280.119Z" fill="#E5E4E7"/>
<path d="M97.8029 281.741L95.4807 282.692L95.401 282.498L97.7231 281.547L97.8029 281.741ZM93.1586 283.642L90.8365 284.593L90.7568 284.399L93.0789 283.448L93.1586 283.642ZM88.5144 285.543L86.1923 286.494L86.1126 286.3L88.4347 285.349L88.5144 285.543ZM83.8702 287.444L81.5481 288.395L81.4683 288.201L83.7904 287.25L83.8702 287.444ZM79.226 289.346L76.9039 290.296L76.8241 290.102L79.1462 289.152L79.226 289.346ZM74.5818 291.247L72.2597 292.197L72.1799 292.003L74.502 291.053L74.5818 291.247ZM69.9376 293.148L67.6155 294.098L67.5357 293.904L69.8578 292.954L69.9376 293.148ZM65.2934 295.049L62.9713 295.999L62.8915 295.805L65.2136 294.855L65.2934 295.049Z" fill="#E5E4E7"/>
<path d="M60.5694 296.756L59.4026 297.234L59.4824 297.428L60.6492 296.95L60.5694 296.756Z" fill="#E5E4E7"/>
<path d="M81.9702 297.97L80.8034 298.448L80.8832 298.642L82.05 298.164L81.9702 297.97Z" fill="#E5E4E7"/>
<path d="M78.4941 299.62L76.105 300.598L76.0252 300.404L78.4143 299.426L78.4941 299.62ZM73.7158 301.576L71.3267 302.554L71.2469 302.36L73.636 301.382L73.7158 301.576ZM68.9376 303.532L66.5485 304.51L66.4688 304.316L68.8578 303.338L68.9376 303.532Z" fill="#E5E4E7"/>
<path d="M64.0796 305.294L62.9128 305.771L62.9926 305.965L64.1594 305.488L64.0796 305.294Z" fill="#E5E4E7"/>
<path d="M87.9604 312.54L86.7936 313.017L86.8734 313.211L88.0402 312.734L87.9604 312.54Z" fill="#E5E4E7"/>
<path d="M84.4843 314.189L82.0952 315.167L82.0155 314.973L84.4046 313.995L84.4843 314.189ZM79.7061 316.145L77.317 317.123L77.2372 316.929L79.6263 315.951L79.7061 316.145ZM74.9279 318.101L72.5388 319.079L72.459 318.885L74.8481 317.907L74.9279 318.101Z" fill="#E5E4E7"/>
<path d="M70.0699 319.863L68.9031 320.341L68.9829 320.535L70.1497 320.057L70.0699 319.863Z" fill="#E5E4E7"/>
<path d="M75.6224 317.991L142.876 290.461C144.503 289.793 145.799 288.507 146.478 286.887C147.157 285.267 147.164 283.444 146.498 281.818L132.91 248.769L132.778 248.827L116.274 288.202L104.034 283.096C103.808 283.001 103.563 282.96 103.319 282.975C103.074 282.99 102.836 283.062 102.624 283.184C102.305 283.375 102.059 283.666 101.922 284.011L93.2729 304.645L84.3232 300.912C84.1301 300.832 83.923 300.79 83.7136 300.789C83.5043 300.788 83.2969 300.829 83.1032 300.908C82.9095 300.987 82.7334 301.104 82.5849 301.251C82.4364 301.398 82.3184 301.573 82.2377 301.766C82.1804 301.906 76.6622 315.416 75.6224 317.991Z" fill="#2C10EF"/>
<path d="M75.4154 318.302L75.2215 318.221L82.1419 301.709C82.3251 301.273 82.6742 300.928 83.1124 300.748C83.5506 300.569 84.0423 300.57 84.4795 300.752L93.2523 304.413L101.852 283.893C102.036 283.457 102.385 283.111 102.823 282.932C103.261 282.752 103.753 282.754 104.19 282.936L116.254 287.97L132.842 248.389L133.036 248.47L116.367 288.244L104.109 283.129C103.918 283.05 103.713 283.008 103.506 283.007C103.299 283.007 103.094 283.047 102.902 283.125C102.711 283.204 102.537 283.319 102.39 283.464C102.243 283.61 102.126 283.783 102.046 283.974L93.3651 304.687L84.3984 300.946C84.0126 300.785 83.5788 300.784 83.1922 300.942C82.8055 301.101 82.4975 301.405 82.3358 301.79L75.4154 318.302Z" fill="#7B7986"/>
<path d="M82.01 299.535C82.8226 299.535 83.4814 298.878 83.4814 298.067C83.4814 297.256 82.8226 296.599 82.01 296.599C81.1974 296.599 80.5387 297.256 80.5387 298.067C80.5387 298.878 81.1974 299.535 82.01 299.535Z" fill="#7B7986"/>
<path d="M101.252 281.684C102.065 281.684 102.723 281.027 102.723 280.216C102.723 279.405 102.065 278.748 101.252 278.748C100.439 278.748 99.7806 279.405 99.7806 280.216C99.7806 281.027 100.439 281.684 101.252 281.684Z" fill="#7B7986"/>
<path d="M131.214 247.905C132.026 247.905 132.685 247.248 132.685 246.437C132.685 245.626 132.026 244.969 131.214 244.969C130.401 244.969 129.742 245.626 129.742 246.437C129.742 247.248 130.401 247.905 131.214 247.905Z" fill="#7B7986"/>
<path d="M48.8593 296.401C49.6242 296.021 50.2963 295.479 50.8283 294.812C51.3603 294.145 51.7393 293.37 51.9385 292.541C52.1378 291.712 52.1524 290.849 51.9815 290.014C51.8105 289.179 51.4581 288.391 50.9491 287.706L55.3189 245.075H45.8753L42.4024 286.702C41.3065 287.632 40.5903 288.93 40.3896 290.352C40.1889 291.773 40.5176 293.218 41.3135 294.414C42.1094 295.609 43.3172 296.472 44.7079 296.838C46.0987 297.204 47.5758 297.049 48.8593 296.401Z" fill="#FFB8B8"/>
<path d="M57.5303 221.548C64.9093 221.548 70.8912 215.579 70.8912 208.216C70.8912 200.853 64.9093 194.884 57.5303 194.884C50.1513 194.884 44.1694 200.853 44.1694 208.216C44.1694 215.579 50.1513 221.548 57.5303 221.548Z" fill="#FFB8B8"/>
<path d="M60.0457 269.902C59.5108 269.902 58.9908 269.727 58.5654 269.403C58.14 269.08 57.8327 268.626 57.6907 268.112C56.6202 264.231 53.8352 257.67 49.4132 248.609C48.4154 246.561 47.8629 244.325 47.7918 242.049C47.7208 239.773 48.1329 237.508 49.0011 235.401C49.8692 233.295 51.1739 231.396 52.8294 229.829C54.4849 228.261 56.4538 227.06 58.6071 226.305C60.6476 225.586 62.8119 225.283 64.972 225.413C67.132 225.544 69.244 226.105 71.1828 227.064C73.1216 228.023 74.848 229.361 76.2598 230.997C77.6715 232.634 78.74 234.536 79.402 236.592C82.8296 247.314 82.6641 258.8 82.4338 263.24C82.4052 263.774 82.2017 264.285 81.8545 264.693C81.5073 265.102 81.0355 265.385 80.5114 265.501L60.5707 269.846C60.3982 269.883 60.2222 269.902 60.0457 269.902Z" fill="#FF6584"/>
<path d="M79.356 396.498H86.0249L89.1978 370.83L79.3549 370.831L79.356 396.498Z" fill="#FFB8B8"/>
<path d="M98.8873 402.677L77.927 402.678L77.9267 394.597L90.7887 394.597C91.8522 394.597 92.9052 394.805 93.8878 395.212C94.8703 395.618 95.7631 396.213 96.5151 396.963C97.2672 397.713 97.8637 398.604 98.2707 399.584C98.6778 400.565 98.8873 401.616 98.8873 402.677Z" fill="#4A4950"/>
<path d="M98.8873 402.677L77.927 402.678L77.9267 394.597L90.7887 394.597C91.8522 394.597 92.9052 394.805 93.8878 395.212C94.8703 395.618 95.7631 396.213 96.5151 396.963C97.2672 397.713 97.8637 398.604 98.2707 399.584C98.6778 400.565 98.8873 401.616 98.8873 402.677Z" fill="black" fill-opacity="0.2"/>
<path d="M12.6674 387.874L18.5119 391.08L33.6859 370.113L25.0609 365.381L12.6674 387.874Z" fill="#FFB8B8"/>
<path d="M26.7993 402.678L8.43186 392.602L12.3333 385.521L23.6043 391.704C25.4864 392.736 26.8804 394.472 27.4796 396.531C28.0787 398.589 27.8341 400.8 26.7993 402.678Z" fill="#4A4950"/>
<path d="M26.7993 402.678L8.43186 392.602L12.3333 385.521L23.6043 391.704C25.4864 392.736 26.8804 394.472 27.4796 396.531C28.0787 398.589 27.8341 400.8 26.7993 402.678Z" fill="black" fill-opacity="0.2"/>
<path d="M79.0444 382.251C78.4501 382.251 77.8763 382.035 77.43 381.643C76.9838 381.251 76.6955 380.711 76.6191 380.123L68.2785 315.992C68.2417 315.709 68.1159 315.444 67.9192 315.236C67.7226 315.028 67.465 314.887 67.1834 314.834C66.9017 314.78 66.6104 314.817 66.351 314.939C66.0916 315.061 65.8774 315.261 65.7389 315.512L30.9788 378.439C30.692 378.952 30.2299 379.346 29.6766 379.549C29.1233 379.752 28.5154 379.749 27.9636 379.543L20.3869 376.662C20.0822 376.547 19.8037 376.371 19.5679 376.146C19.332 375.922 19.1435 375.652 19.0135 375.354C18.8835 375.055 18.8145 374.734 18.8107 374.409C18.8068 374.083 18.8682 373.76 18.9911 373.459L43.0704 314.437C43.1313 314.287 43.1726 314.13 43.1933 313.969C46.4547 288.781 54.7528 275.973 57.2183 272.647C57.3984 272.403 57.5169 272.118 57.5639 271.819C57.6108 271.519 57.5848 271.212 57.4881 270.925L57.1491 269.91C57.0137 269.508 56.986 269.077 57.0686 268.66C57.1512 268.243 57.3414 267.855 57.6202 267.534C66.5043 257.438 81.9888 262.947 82.1442 263.004L82.2218 263.032L82.2704 263.099C99.6331 286.858 93.2135 364.029 91.7504 379.258C91.6957 379.83 91.44 380.364 91.0285 380.767C90.6169 381.169 90.076 381.413 89.5015 381.456L79.2345 382.245C79.1707 382.249 79.1073 382.251 79.0444 382.251Z" fill="#4A4950"/>
<path d="M79.0444 382.251C78.4501 382.251 77.8763 382.035 77.43 381.643C76.9838 381.251 76.6955 380.711 76.6191 380.123L68.2785 315.992C68.2417 315.709 68.1159 315.444 67.9192 315.236C67.7226 315.028 67.465 314.887 67.1834 314.834C66.9017 314.78 66.6104 314.817 66.351 314.939C66.0916 315.061 65.8774 315.261 65.7389 315.512L30.9788 378.439C30.692 378.952 30.2299 379.346 29.6766 379.549C29.1233 379.752 28.5154 379.749 27.9636 379.543L20.3869 376.662C20.0822 376.547 19.8037 376.371 19.5679 376.146C19.332 375.922 19.1435 375.652 19.0135 375.354C18.8835 375.055 18.8145 374.734 18.8107 374.409C18.8068 374.083 18.8682 373.76 18.9911 373.459L43.0704 314.437C43.1313 314.287 43.1726 314.13 43.1933 313.969C46.4547 288.781 54.7528 275.973 57.2183 272.647C57.3984 272.403 57.5169 272.118 57.5639 271.819C57.6108 271.519 57.5848 271.212 57.4881 270.925L57.1491 269.91C57.0137 269.508 56.986 269.077 57.0686 268.66C57.1512 268.243 57.3414 267.855 57.6202 267.534C66.5043 257.438 81.9888 262.947 82.1442 263.004L82.2218 263.032L82.2704 263.099C99.6331 286.858 93.2135 364.029 91.7504 379.258C91.6957 379.83 91.44 380.364 91.0285 380.767C90.6169 381.169 90.076 381.413 89.5015 381.456L79.2345 382.245C79.1707 382.249 79.1073 382.251 79.0444 382.251Z" fill="black" fill-opacity="0.2"/>
<path d="M109.473 223.702C109.406 223.995 109.362 224.293 109.342 224.593L85.974 238.044L80.294 234.781L74.2388 242.691L83.7316 249.442C84.4984 249.988 85.422 250.27 86.3634 250.247C87.3049 250.224 88.2135 249.897 88.9529 249.315L113.05 230.347C114.137 230.749 115.321 230.81 116.445 230.524C117.568 230.238 118.578 229.617 119.339 228.744C120.101 227.871 120.578 226.788 120.707 225.638C120.836 224.488 120.611 223.326 120.062 222.307C119.514 221.288 118.667 220.459 117.635 219.932C116.603 219.404 115.434 219.203 114.284 219.355C113.135 219.506 112.059 220.003 111.199 220.78C110.34 221.556 109.737 222.576 109.473 223.702Z" fill="#FFB8B8"/>
<path d="M85.1928 238.681L77.6402 248.448C77.4253 248.726 77.1529 248.955 76.8415 249.118C76.5302 249.282 76.1872 249.376 75.836 249.395C75.4847 249.414 75.1334 249.358 74.8061 249.229C74.4787 249.101 74.1829 248.904 73.9389 248.651L65.3889 239.792C63.9702 238.686 63.0486 237.065 62.8261 235.283C62.6036 233.501 63.0985 231.703 64.2021 230.285C65.3057 228.866 66.9281 227.942 68.7135 227.715C70.4989 227.488 72.3016 227.977 73.7264 229.075L84.45 235.058C84.757 235.229 85.0233 235.464 85.2309 235.748C85.4385 236.031 85.5824 236.356 85.6529 236.7C85.7234 237.044 85.7188 237.399 85.6394 237.741C85.56 238.083 85.4076 238.403 85.1928 238.681Z" fill="#FF6584"/>
<path d="M55.92 255.65L43.7532 253.458C43.407 253.396 43.0784 253.26 42.7897 253.059C42.5009 252.859 42.2589 252.598 42.0801 252.296C41.9013 251.994 41.7899 251.657 41.7534 251.308C41.717 250.958 41.7564 250.606 41.8689 250.273L45.8131 238.621C46.1429 236.855 47.1609 235.292 48.6439 234.274C50.1269 233.256 51.9538 232.867 53.7241 233.191C55.4945 233.516 57.0636 234.527 58.0876 236.004C59.1116 237.481 59.5067 239.303 59.1864 241.071L58.8016 253.324C58.7905 253.675 58.7037 254.019 58.5472 254.333C58.3907 254.648 58.1681 254.925 57.8947 255.146C57.6212 255.366 57.3032 255.526 56.9625 255.613C56.6217 255.7 56.2661 255.713 55.9199 255.65H55.92Z" fill="#FF6584"/>
<path d="M59.645 205.15C63.0791 207.495 67.588 209.906 71.0954 207.408C72.1925 206.574 72.9895 205.409 73.3671 204.085C73.7447 202.762 73.6826 201.352 73.1901 200.067C71.5106 195.275 66.8964 193.165 62.4841 191.548C56.7481 189.446 50.5024 187.773 44.5808 189.279C38.6593 190.784 33.426 196.505 34.495 202.508C35.3546 207.336 39.9185 211.353 39.2706 216.214C38.6185 221.105 33.1052 223.68 28.2377 224.555C23.3703 225.429 17.9235 225.71 14.4254 229.198C9.96305 233.649 11.0774 241.603 15.2763 246.302C19.4752 251 25.8117 253.13 31.9516 254.578C40.0867 256.496 48.8855 257.505 56.6118 254.321C64.3381 251.137 70.3506 242.567 68.1124 234.531C67.167 231.136 64.9399 228.267 62.7875 225.474C60.6352 222.681 58.4557 219.761 57.6347 216.334C56.9505 213.479 57.4569 210.163 59.3546 208.021C59.6998 207.646 59.9171 207.172 59.9751 206.666C60.0332 206.16 59.9292 205.649 59.678 205.206L59.645 205.15Z" fill="#4A4950"/>
<path d="M59.645 205.15C63.0791 207.495 67.588 209.906 71.0954 207.408C72.1925 206.574 72.9895 205.409 73.3671 204.085C73.7447 202.762 73.6826 201.352 73.1901 200.067C71.5106 195.275 66.8964 193.165 62.4841 191.548C56.7481 189.446 50.5024 187.773 44.5808 189.279C38.6593 190.784 33.426 196.505 34.495 202.508C35.3546 207.336 39.9185 211.353 39.2706 216.214C38.6185 221.105 33.1052 223.68 28.2377 224.555C23.3703 225.429 17.9235 225.71 14.4254 229.198C9.96305 233.649 11.0774 241.603 15.2763 246.302C19.4752 251 25.8117 253.13 31.9516 254.578C40.0867 256.496 48.8855 257.505 56.6118 254.321C64.3381 251.137 70.3506 242.567 68.1124 234.531C67.167 231.136 64.9399 228.267 62.7875 225.474C60.6352 222.681 58.4557 219.761 57.6347 216.334C56.9505 213.479 57.4569 210.163 59.3546 208.021C59.6998 207.646 59.9171 207.172 59.9751 206.666C60.0332 206.16 59.9292 205.649 59.678 205.206L59.645 205.15Z" fill="black" fill-opacity="0.2"/>
<path d="M110.569 403H0.578894C0.425362 403 0.278118 402.939 0.169554 402.831C0.0609901 402.722 0 402.576 0 402.422C0 402.269 0.0609901 402.122 0.169554 402.014C0.278118 401.906 0.425362 401.845 0.578894 401.845H110.569C110.722 401.845 110.87 401.906 110.978 402.014C111.087 402.122 111.148 402.269 111.148 402.422C111.148 402.576 111.087 402.722 110.978 402.831C110.87 402.939 110.722 403 110.569 403Z" fill="#E5E4E7"/>
</svg>
